MatrixSansRaster-Regular.ufo
<glyph name="hyphen" format="2">
  <advance width="500"/>
  <unicode hex="002D"/>
  <outline>
    <contour>
      <point x="35.0" y="350.0" type="curve" smooth="yes"/>
      <point x="35.0" y="372.0"/>
      <point x="53.0" y="390.0"/>
      <point x="75.0" y="390.0" type="curve" smooth="yes"/>
      <point x="425.0" y="390.0" type="line" smooth="yes"/>
      <point x="447.0" y="390.0"/>
      <point x="465.0" y="372.0"/>
      <point x="465.0" y="350.0" type="curve" smooth="yes"/>
      <point x="465.0" y="328.0"/>
      <point x="447.0" y="310.0"/>
      <point x="425.0" y="310.0" type="curve" smooth="yes"/>
      <point x="75.0" y="310.0" type="line" smooth="yes"/>
      <point x="53.0" y="310.0"/>
      <point x="35.0" y="328.0"/>
    </contour>
  </outline>
</glyph>
<glyph name="hbar" format="2">
  <advance width="600"/>
  <unicode hex="0127"/>
  <outline>
    <contour>
      <point x="435.0" y="50.0" type="curve" smooth="yes"/>
      <point x="435.0" y="72.0"/>
      <point x="453.0" y="90.0"/>
      <point x="475.0" y="90.0" type="curve" smooth="yes"/>
      <point x="525.0" y="90.0" type="line" smooth="yes"/>
      <point x="547.0" y="90.0"/>
      <point x="565.0" y="72.0"/>
      <point x="565.0" y="50.0" type="curve" smooth="yes"/>
      <point x="565.0" y="28.0"/>
      <point x="547.0" y="10.0"/>
      <point x="525.0" y="10.0" type="curve" smooth="yes"/>
      <point x="475.0" y="10.0" type="line" smooth="yes"/>
      <point x="453.0" y="10.0"/>
      <point x="435.0" y="28.0"/>
    </contour>
    <contour>
      <point x="135.0" y="50.0" type="curve" smooth="yes"/>
      <point x="135.0" y="72.0"/>
      <point x="153.0" y="90.0"/>
      <point x="175.0" y="90.0" type="curve" smooth="yes"/>
      <point x="225.0" y="90.0" type="line" smooth="yes"/>
      <point x="247.0" y="90.0"/>
      <point x="265.0" y="72.0"/>
      <point x="265.0" y="50.0" type="curve" smooth="yes"/>
      <point x="265.0" y="28.0"/>
      <point x="247.0" y="10.0"/>
      <point x="225.0" y="10.0" type="curve" smooth="yes"/>
      <point x="175.0" y="10.0" type="line" smooth="yes"/>
      <point x="153.0" y="10.0"/>
      <point x="135.0" y="28.0"/>
    </contour>
    <contour>
      <point x="435.0" y="150.0" type="curve" smooth="yes"/>
      <point x="435.0" y="172.0"/>
      <point x="453.0" y="190.0"/>
      <point x="475.0" y="190.0" type="curve" smooth="yes"/>
      <point x="525.0" y="190.0" type="line" smooth="yes"/>
      <point x="547.0" y="190.0"/>
      <point x="565.0" y="172.0"/>
      <point x="565.0" y="150.0" type="curve" smooth="yes"/>
      <point x="565.0" y="128.0"/>
      <point x="547.0" y="110.0"/>
      <point x="525.0" y="110.0" type="curve" smooth="yes"/>
      <point x="475.0" y="110.0" type="line" smooth="yes"/>
      <point x="453.0" y="110.0"/>
      <point x="435.0" y="128.0"/>
    </contour>
    <contour>
      <point x="135.0" y="150.0" type="curve" smooth="yes"/>
      <point x="135.0" y="172.0"/>
      <point x="153.0" y="190.0"/>
      <point x="175.0" y="190.0" type="curve" smooth="yes"/>
      <point x="225.0" y="190.0" type="line" smooth="yes"/>
      <point x="247.0" y="190.0"/>
      <point x="265.0" y="172.0"/>
      <point x="265.0" y="150.0" type="curve" smooth="yes"/>
      <point x="265.0" y="128.0"/>
      <point x="247.0" y="110.0"/>
      <point x="225.0" y="110.0" type="curve" smooth="yes"/>
      <point x="175.0" y="110.0" type="line" smooth="yes"/>
      <point x="153.0" y="110.0"/>
      <point x="135.0" y="128.0"/>
    </contour>
    <contour>
      <point x="435.0" y="250.0" type="curve" smooth="yes"/>
      <point x="435.0" y="272.0"/>
      <point x="453.0" y="290.0"/>
      <point x="475.0" y="290.0" type="curve" smooth="yes"/>
      <point x="525.0" y="290.0" type="line" smooth="yes"/>
      <point x="547.0" y="290.0"/>
      <point x="565.0" y="272.0"/>
      <point x="565.0" y="250.0" type="curve" smooth="yes"/>
      <point x="565.0" y="228.0"/>
      <point x="547.0" y="210.0"/>
      <point x="525.0" y="210.0" type="curve" smooth="yes"/>
      <point x="475.0" y="210.0" type="line" smooth="yes"/>
      <point x="453.0" y="210.0"/>
      <point x="435.0" y="228.0"/>
    </contour>
    <contour>
      <point x="135.0" y="250.0" type="curve" smooth="yes"/>
      <point x="135.0" y="272.0"/>
      <point x="153.0" y="290.0"/>
      <point x="175.0" y="290.0" type="curve" smooth="yes"/>
      <point x="225.0" y="290.0" type="line" smooth="yes"/>
      <point x="247.0" y="290.0"/>
      <point x="265.0" y="272.0"/>
      <point x="265.0" y="250.0" type="curve" smooth="yes"/>
      <point x="265.0" y="228.0"/>
      <point x="247.0" y="210.0"/>
      <point x="225.0" y="210.0" type="curve" smooth="yes"/>
      <point x="175.0" y="210.0" type="line" smooth="yes"/>
      <point x="153.0" y="210.0"/>
      <point x="135.0" y="228.0"/>
    </contour>
    <contour>
      <point x="135.0" y="350.0" type="curve" smooth="yes"/>
      <point x="135.0" y="372.0"/>
      <point x="153.0" y="390.0"/>
      <point x="175.0" y="390.0" type="curve" smooth="yes"/>
      <point x="425.0" y="390.0" type="line" smooth="yes"/>
      <point x="447.0" y="390.0"/>
      <point x="465.0" y="372.0"/>
      <point x="465.0" y="350.0" type="curve" smooth="yes"/>
      <point x="465.0" y="328.0"/>
      <point x="447.0" y="310.0"/>
      <point x="425.0" y="310.0" type="curve" smooth="yes"/>
      <point x="175.0" y="310.0" type="line" smooth="yes"/>
      <point x="153.0" y="310.0"/>
      <point x="135.0" y="328.0"/>
    </contour>
    <contour>
      <point x="135.0" y="450.0" type="curve" smooth="yes"/>
      <point x="135.0" y="472.0"/>
      <point x="153.0" y="490.0"/>
      <point x="175.0" y="490.0" type="curve" smooth="yes"/>
      <point x="225.0" y="490.0" type="line" smooth="yes"/>
      <point x="247.0" y="490.0"/>
      <point x="265.0" y="472.0"/>
      <point x="265.0" y="450.0" type="curve" smooth="yes"/>
      <point x="265.0" y="428.0"/>
      <point x="247.0" y="410.0"/>
      <point x="225.0" y="410.0" type="curve" smooth="yes"/>
      <point x="175.0" y="410.0" type="line" smooth="yes"/>
      <point x="153.0" y="410.0"/>
      <point x="135.0" y="428.0"/>
    </contour>
    <contour>
      <point x="35.0" y="550.0" type="curve" smooth="yes"/>
      <point x="35.0" y="572.0"/>
      <point x="53.0" y="590.0"/>
      <point x="75.0" y="590.0" type="curve" smooth="yes"/>
      <point x="325.0" y="590.0" type="line" smooth="yes"/>
      <point x="347.0" y="590.0"/>
      <point x="365.0" y="572.0"/>
      <point x="365.0" y="550.0" type="curve" smooth="yes"/>
      <point x="365.0" y="528.0"/>
      <point x="347.0" y="510.0"/>
      <point x="325.0" y="510.0" type="curve" smooth="yes"/>
      <point x="75.0" y="510.0" type="line" smooth="yes"/>
      <point x="53.0" y="510.0"/>
      <point x="35.0" y="528.0"/>
    </contour>
    <contour>
      <point x="135.0" y="650.0" type="curve" smooth="yes"/>
      <point x="135.0" y="672.0"/>
      <point x="153.0" y="690.0"/>
      <point x="175.0" y="690.0" type="curve" smooth="yes"/>
      <point x="225.0" y="690.0" type="line" smooth="yes"/>
      <point x="247.0" y="690.0"/>
      <point x="265.0" y="672.0"/>
      <point x="265.0" y="650.0" type="curve" smooth="yes"/>
      <point x="265.0" y="628.0"/>
      <point x="247.0" y="610.0"/>
      <point x="225.0" y="610.0" type="curve" smooth="yes"/>
      <point x="175.0" y="610.0" type="line" smooth="yes"/>
      <point x="153.0" y="610.0"/>
      <point x="135.0" y="628.0"/>
    </contour>
  </outline>
</glyph>
<glyph name="jdotless" format="2">
  <advance width="500"/>
  <unicode hex="0237"/>
  <outline>
    <contour>
      <point x="135.0" y="-150.0" type="curve" smooth="yes"/>
      <point x="135.0" y="-128.0"/>
      <point x="153.0" y="-110.0"/>
      <point x="175.0" y="-110.0" type="curve" smooth="yes"/>
      <point x="325.0" y="-110.0" type="line" smooth="yes"/>
      <point x="347.0" y="-110.0"/>
      <point x="365.0" y="-128.0"/>
      <point x="365.0" y="-150.0" type="curve" smooth="yes"/>
      <point x="365.0" y="-172.0"/>
      <point x="347.0" y="-190.0"/>
      <point x="325.0" y="-190.0" type="curve" smooth="yes"/>
      <point x="175.0" y="-190.0" type="line" smooth="yes"/>
      <point x="153.0" y="-190.0"/>
      <point x="135.0" y="-172.0"/>
    </contour>
    <contour>
      <point x="335.0" y="-50.0" type="curve" smooth="yes"/>
      <point x="335.0" y="-28.0"/>
      <point x="353.0" y="-10.0"/>
      <point x="375.0" y="-10.0" type="curve" smooth="yes"/>
      <point x="425.0" y="-10.0" type="line" smooth="yes"/>
      <point x="447.0" y="-10.0"/>
      <point x="465.0" y="-28.0"/>
      <point x="465.0" y="-50.0" type="curve" smooth="yes"/>
      <point x="465.0" y="-72.0"/>
      <point x="447.0" y="-90.0"/>
      <point x="425.0" y="-90.0" type="curve" smooth="yes"/>
      <point x="375.0" y="-90.0" type="line" smooth="yes"/>
      <point x="353.0" y="-90.0"/>
      <point x="335.0" y="-72.0"/>
    </contour>
    <contour>
      <point x="35.0" y="-50.0" type="curve" smooth="yes"/>
      <point x="35.0" y="-28.0"/>
      <point x="53.0" y="-10.0"/>
      <point x="75.0" y="-10.0" type="curve" smooth="yes"/>
      <point x="125.0" y="-10.0" type="line" smooth="yes"/>
      <point x="147.0" y="-10.0"/>
      <point x="165.0" y="-28.0"/>
      <point x="165.0" y="-50.0" type="curve" smooth="yes"/>
      <point x="165.0" y="-72.0"/>
      <point x="147.0" y="-90.0"/>
      <point x="125.0" y="-90.0" type="curve" smooth="yes"/>
      <point x="75.0" y="-90.0" type="line" smooth="yes"/>
      <point x="53.0" y="-90.0"/>
      <point x="35.0" y="-72.0"/>
    </contour>
    <contour>
      <point x="335.0" y="50.0" type="curve" smooth="yes"/>
      <point x="335.0" y="72.0"/>
      <point x="353.0" y="90.0"/>
      <point x="375.0" y="90.0" type="curve" smooth="yes"/>
      <point x="425.0" y="90.0" type="line" smooth="yes"/>
      <point x="447.0" y="90.0"/>
      <point x="465.0" y="72.0"/>
      <point x="465.0" y="50.0" type="curve" smooth="yes"/>
      <point x="465.0" y="28.0"/>
      <point x="447.0" y="10.0"/>
      <point x="425.0" y="10.0" type="curve" smooth="yes"/>
      <point x="375.0" y="10.0" type="line" smooth="yes"/>
      <point x="353.0" y="10.0"/>
      <point x="335.0" y="28.0"/>
    </contour>
    <contour>
      <point x="335.0" y="150.0" type="curve" smooth="yes"/>
      <point x="335.0" y="172.0"/>
      <point x="353.0" y="190.0"/>
      <point x="375.0" y="190.0" type="curve" smooth="yes"/>
      <point x="425.0" y="190.0" type="line" smooth="yes"/>
      <point x="447.0" y="190.0"/>
      <point x="465.0" y="172.0"/>
      <point x="465.0" y="150.0" type="curve" smooth="yes"/>
      <point x="465.0" y="128.0"/>
      <point x="447.0" y="110.0"/>
      <point x="425.0" y="110.0" type="curve" smooth="yes"/>
      <point x="375.0" y="110.0" type="line" smooth="yes"/>
      <point x="353.0" y="110.0"/>
      <point x="335.0" y="128.0"/>
    </contour>
    <contour>
      <point x="335.0" y="250.0" type="curve" smooth="yes"/>
      <point x="335.0" y="272.0"/>
      <point x="353.0" y="290.0"/>
      <point x="375.0" y="290.0" type="curve" smooth="yes"/>
      <point x="425.0" y="290.0" type="line" smooth="yes"/>
      <point x="447.0" y="290.0"/>
      <point x="465.0" y="272.0"/>
      <point x="465.0" y="250.0" type="curve" smooth="yes"/>
      <point x="465.0" y="228.0"/>
      <point x="447.0" y="210.0"/>
      <point x="425.0" y="210.0" type="curve" smooth="yes"/>
      <point x="375.0" y="210.0" type="line" smooth="yes"/>
      <point x="353.0" y="210.0"/>
      <point x="335.0" y="228.0"/>
    </contour>
    <contour>
      <point x="335.0" y="350.0" type="curve" smooth="yes"/>
      <point x="335.0" y="372.0"/>
      <point x="353.0" y="390.0"/>
      <point x="375.0" y="390.0" type="curve" smooth="yes"/>
      <point x="425.0" y="390.0" type="line" smooth="yes"/>
      <point x="447.0" y="390.0"/>
      <point x="465.0" y="372.0"/>
      <point x="465.0" y="350.0" type="curve" smooth="yes"/>
      <point x="465.0" y="328.0"/>
      <point x="447.0" y="310.0"/>
      <point x="425.0" y="310.0" type="curve" smooth="yes"/>
      <point x="375.0" y="310.0" type="line" smooth="yes"/>
      <point x="353.0" y="310.0"/>
      <point x="335.0" y="328.0"/>
    </contour>
    <contour>
      <point x="235.0" y="450.0" type="curve" smooth="yes"/>
      <point x="235.0" y="472.0"/>
      <point x="253.0" y="490.0"/>
      <point x="275.0" y="490.0" type="curve" smooth="yes"/>
      <point x="425.0" y="490.0" type="line" smooth="yes"/>
      <point x="447.0" y="490.0"/>
      <point x="465.0" y="472.0"/>
      <point x="465.0" y="450.0" type="curve" smooth="yes"/>
      <point x="465.0" y="428.0"/>
      <point x="447.0" y="410.0"/>
      <point x="425.0" y="410.0" type="curve" smooth="yes"/>
      <point x="275.0" y="410.0" type="line" smooth="yes"/>
      <point x="253.0" y="410.0"/>
      <point x="235.0" y="428.0"/>
    </contour>
  </outline>
</glyph>
<glyph name="uni02BD" format="2">
  <advance width="300"/>
  <unicode hex="02BD"/>
  <outline>
    <contour>
      <point x="135.0" y="450.0" type="curve" smooth="yes"/>
      <point x="135.0" y="472.0"/>
      <point x="153.0" y="490.0"/>
      <point x="175.0" y="490.0" type="curve" smooth="yes"/>
      <point x="225.0" y="490.0" type="line" smooth="yes"/>
      <point x="247.0" y="490.0"/>
      <point x="265.0" y="472.0"/>
      <point x="265.0" y="450.0" type="curve" smooth="yes"/>
      <point x="265.0" y="428.0"/>
      <point x="247.0" y="410.0"/>
      <point x="225.0" y="410.0" type="curve" smooth="yes"/>
      <point x="175.0" y="410.0" type="line" smooth="yes"/>
      <point x="153.0" y="410.0"/>
      <point x="135.0" y="428.0"/>
    </contour>
    <contour>
      <point x="35.0" y="550.0" type="curve" smooth="yes"/>
      <point x="35.0" y="572.0"/>
      <point x="53.0" y="590.0"/>
      <point x="75.0" y="590.0" type="curve" smooth="yes"/>
      <point x="125.0" y="590.0" type="line" smooth="yes"/>
      <point x="147.0" y="590.0"/>
      <point x="165.0" y="572.0"/>
      <point x="165.0" y="550.0" type="curve" smooth="yes"/>
      <point x="165.0" y="528.0"/>
      <point x="147.0" y="510.0"/>
      <point x="125.0" y="510.0" type="curve" smooth="yes"/>
      <point x="75.0" y="510.0" type="line" smooth="yes"/>
      <point x="53.0" y="510.0"/>
      <point x="35.0" y="528.0"/>
    </contour>
    <contour>
      <point x="35.0" y="650.0" type="curve" smooth="yes"/>
      <point x="35.0" y="672.0"/>
      <point x="53.0" y="690.0"/>
      <point x="75.0" y="690.0" type="curve" smooth="yes"/>
      <point x="125.0" y="690.0" type="line" smooth="yes"/>
      <point x="147.0" y="690.0"/>
      <point x="165.0" y="672.0"/>
      <point x="165.0" y="650.0" type="curve" smooth="yes"/>
      <point x="165.0" y="628.0"/>
      <point x="147.0" y="610.0"/>
      <point x="125.0" y="610.0" type="curve" smooth="yes"/>
      <point x="75.0" y="610.0" type="line" smooth="yes"/>
      <point x="53.0" y="610.0"/>
      <point x="35.0" y="628.0"/>
    </contour>
  </outline>
</glyph>
<glyph name="uni02CC" format="2">
  <advance width="200"/>
  <unicode hex="02CC"/>
  <outline>
    <contour>
      <point x="35.0" y="-150.0" type="curve" smooth="yes"/>
      <point x="35.0" y="-128.0"/>
      <point x="53.0" y="-110.0"/>
      <point x="75.0" y="-110.0" type="curve" smooth="yes"/>
      <point x="125.0" y="-110.0" type="line" smooth="yes"/>
      <point x="147.0" y="-110.0"/>
      <point x="165.0" y="-128.0"/>
      <point x="165.0" y="-150.0" type="curve" smooth="yes"/>
      <point x="165.0" y="-172.0"/>
      <point x="147.0" y="-190.0"/>
      <point x="125.0" y="-190.0" type="curve" smooth="yes"/>
      <point x="75.0" y="-190.0" type="line" smooth="yes"/>
      <point x="53.0" y="-190.0"/>
      <point x="35.0" y="-172.0"/>
    </contour>
    <contour>
      <point x="35.0" y="-50.0" type="curve" smooth="yes"/>
      <point x="35.0" y="-28.0"/>
      <point x="53.0" y="-10.0"/>
      <point x="75.0" y="-10.0" type="curve" smooth="yes"/>
      <point x="125.0" y="-10.0" type="line" smooth="yes"/>
      <point x="147.0" y="-10.0"/>
      <point x="165.0" y="-28.0"/>
      <point x="165.0" y="-50.0" type="curve" smooth="yes"/>
      <point x="165.0" y="-72.0"/>
      <point x="147.0" y="-90.0"/>
      <point x="125.0" y="-90.0" type="curve" smooth="yes"/>
      <point x="75.0" y="-90.0" type="line" smooth="yes"/>
      <point x="53.0" y="-90.0"/>
      <point x="35.0" y="-72.0"/>
    </contour>
  </outline>
</glyph>
<glyph name="dotaccent" format="2">
  <advance width="200"/>
  <unicode hex="02D9"/>
  <outline>
    <contour>
      <point x="35.0" y="650.0" type="curve" smooth="yes"/>
      <point x="35.0" y="672.0"/>
      <point x="53.0" y="690.0"/>
      <point x="75.0" y="690.0" type="curve" smooth="yes"/>
      <point x="125.0" y="690.0" type="line" smooth="yes"/>
      <point x="147.0" y="690.0"/>
      <point x="165.0" y="672.0"/>
      <point x="165.0" y="650.0" type="curve" smooth="yes"/>
      <point x="165.0" y="628.0"/>
      <point x="147.0" y="610.0"/>
      <point x="125.0" y="610.0" type="curve" smooth="yes"/>
      <point x="75.0" y="610.0" type="line" smooth="yes"/>
      <point x="53.0" y="610.0"/>
      <point x="35.0" y="628.0"/>
    </contour>
  </outline>
</glyph>
<glyph name="tilde" format="2">
  <advance width="600"/>
  <unicode hex="02DC"/>
  <outline>
    <contour>
      <point x="235.0" y="650.0" type="curve" smooth="yes"/>
      <point x="235.0" y="672.0"/>
      <point x="253.0" y="690.0"/>
      <point x="275.0" y="690.0" type="curve" smooth="yes"/>
      <point x="425.0" y="690.0" type="line" smooth="yes"/>
      <point x="447.0" y="690.0"/>
      <point x="465.0" y="672.0"/>
      <point x="465.0" y="650.0" type="curve" smooth="yes"/>
      <point x="465.0" y="628.0"/>
      <point x="447.0" y="610.0"/>
      <point x="425.0" y="610.0" type="curve" smooth="yes"/>
      <point x="275.0" y="610.0" type="line" smooth="yes"/>
      <point x="253.0" y="610.0"/>
      <point x="235.0" y="628.0"/>
    </contour>
    <contour>
      <point x="35.0" y="650.0" type="curve" smooth="yes"/>
      <point x="35.0" y="672.0"/>
      <point x="53.0" y="690.0"/>
      <point x="75.0" y="690.0" type="curve" smooth="yes"/>
      <point x="125.0" y="690.0" type="line" smooth="yes"/>
      <point x="147.0" y="690.0"/>
      <point x="165.0" y="672.0"/>
      <point x="165.0" y="650.0" type="curve" smooth="yes"/>
      <point x="165.0" y="628.0"/>
      <point x="147.0" y="610.0"/>
      <point x="125.0" y="610.0" type="curve" smooth="yes"/>
      <point x="75.0" y="610.0" type="line" smooth="yes"/>
      <point x="53.0" y="610.0"/>
      <point x="35.0" y="628.0"/>
    </contour>
    <contour>
      <point x="435.0" y="750.0" type="curve" smooth="yes"/>
      <point x="435.0" y="772.0"/>
      <point x="453.0" y="790.0"/>
      <point x="475.0" y="790.0" type="curve" smooth="yes"/>
      <point x="525.0" y="790.0" type="line" smooth="yes"/>
      <point x="547.0" y="790.0"/>
      <point x="565.0" y="772.0"/>
      <point x="565.0" y="750.0" type="curve" smooth="yes"/>
      <point x="565.0" y="728.0"/>
      <point x="547.0" y="710.0"/>
      <point x="525.0" y="710.0" type="curve" smooth="yes"/>
      <point x="475.0" y="710.0" type="line" smooth="yes"/>
      <point x="453.0" y="710.0"/>
      <point x="435.0" y="728.0"/>
    </contour>
    <contour>
      <point x="135.0" y="750.0" type="curve" smooth="yes"/>
      <point x="135.0" y="772.0"/>
      <point x="153.0" y="790.0"/>
      <point x="175.0" y="790.0" type="curve" smooth="yes"/>
      <point x="325.0" y="790.0" type="line" smooth="yes"/>
      <point x="347.0" y="790.0"/>
      <point x="365.0" y="772.0"/>
      <point x="365.0" y="750.0" type="curve" smooth="yes"/>
      <point x="365.0" y="728.0"/>
      <point x="347.0" y="710.0"/>
      <point x="325.0" y="710.0" type="curve" smooth="yes"/>
      <point x="175.0" y="710.0" type="line" smooth="yes"/>
      <point x="153.0" y="710.0"/>
      <point x="135.0" y="728.0"/>
    </contour>
  </outline>
</glyph>
<glyph name="uni0307" format="2">
  <unicode hex="0307"/>
  <outline>
    <contour>
      <point x="-65.0" y="650.0" type="curve" smooth="yes"/>
      <point x="-65.0" y="672.0"/>
      <point x="-47.0" y="690.0"/>
      <point x="-25.0" y="690.0" type="curve" smooth="yes"/>
      <point x="25.0" y="690.0" type="line" smooth="yes"/>
      <point x="47.0" y="690.0"/>
      <point x="65.0" y="672.0"/>
      <point x="65.0" y="650.0" type="curve" smooth="yes"/>
      <point x="65.0" y="628.0"/>
      <point x="47.0" y="610.0"/>
      <point x="25.0" y="610.0" type="curve" smooth="yes"/>
      <point x="-25.0" y="610.0" type="line" smooth="yes"/>
      <point x="-47.0" y="610.0"/>
      <point x="-65.0" y="628.0"/>
    </contour>
  </outline>
</glyph>
<glyph name="hookabovecomb" format="2">
  <unicode hex="0309"/>
  <outline>
    <contour>
      <point x="-165.0" y="750.0" type="curve" smooth="yes"/>
      <point x="-165.0" y="772.0"/>
      <point x="-147.0" y="790.0"/>
      <point x="-125.0" y="790.0" type="curve" smooth="yes"/>
      <point x="25.0" y="790.0" type="line" smooth="yes"/>
      <point x="47.0" y="790.0"/>
      <point x="65.0" y="772.0"/>
      <point x="65.0" y="750.0" type="curve" smooth="yes"/>
      <point x="65.0" y="728.0"/>
      <point x="47.0" y="710.0"/>
      <point x="25.0" y="710.0" type="curve" smooth="yes"/>
      <point x="-125.0" y="710.0" type="line" smooth="yes"/>
      <point x="-147.0" y="710.0"/>
      <point x="-165.0" y="728.0"/>
    </contour>
    <contour>
      <point x="-65.0" y="650.0" type="curve" smooth="yes"/>
      <point x="-65.0" y="672.0"/>
      <point x="-47.0" y="690.0"/>
      <point x="-25.0" y="690.0" type="curve" smooth="yes"/>
      <point x="25.0" y="690.0" type="line" smooth="yes"/>
      <point x="47.0" y="690.0"/>
      <point x="65.0" y="672.0"/>
      <point x="65.0" y="650.0" type="curve" smooth="yes"/>
      <point x="65.0" y="628.0"/>
      <point x="47.0" y="610.0"/>
      <point x="25.0" y="610.0" type="curve" smooth="yes"/>
      <point x="-25.0" y="610.0" type="line" smooth="yes"/>
      <point x="-47.0" y="610.0"/>
      <point x="-65.0" y="628.0"/>
    </contour>
  </outline>
</glyph>
<glyph name="uni0315" format="2">
  <unicode hex="0315"/>
  <outline>
    <contour>
      <point x="-15.0" y="550.0" type="curve" smooth="yes"/>
      <point x="-15.0" y="572.0"/>
      <point x="3.0" y="590.0"/>
      <point x="25.0" y="590.0" type="curve" smooth="yes"/>
      <point x="75.0" y="590.0" type="line" smooth="yes"/>
      <point x="97.0" y="590.0"/>
      <point x="115.0" y="572.0"/>
      <point x="115.0" y="550.0" type="curve" smooth="yes"/>
      <point x="115.0" y="528.0"/>
      <point x="97.0" y="510.0"/>
      <point x="75.0" y="510.0" type="curve" smooth="yes"/>
      <point x="25.0" y="510.0" type="line" smooth="yes"/>
      <point x="3.0" y="510.0"/>
      <point x="-15.0" y="528.0"/>
    </contour>
    <contour>
      <point x="-15.0" y="650.0" type="curve" smooth="yes"/>
      <point x="-15.0" y="672.0"/>
      <point x="3.0" y="690.0"/>
      <point x="25.0" y="690.0" type="curve" smooth="yes"/>
      <point x="75.0" y="690.0" type="line" smooth="yes"/>
      <point x="97.0" y="690.0"/>
      <point x="115.0" y="672.0"/>
      <point x="115.0" y="650.0" type="curve" smooth="yes"/>
      <point x="115.0" y="628.0"/>
      <point x="97.0" y="610.0"/>
      <point x="75.0" y="610.0" type="curve" smooth="yes"/>
      <point x="25.0" y="610.0" type="line" smooth="yes"/>
      <point x="3.0" y="610.0"/>
      <point x="-15.0" y="628.0"/>
    </contour>
  </outline>
</glyph>
<glyph name="Xi" format="2">
  <advance width="600"/>
  <unicode hex="039E"/>
  <outline>
    <contour>
      <point x="35.0" y="50.0" type="curve" smooth="yes"/>
      <point x="35.0" y="72.0"/>
      <point x="53.0" y="90.0"/>
      <point x="75.0" y="90.0" type="curve" smooth="yes"/>
      <point x="525.0" y="90.0" type="line" smooth="yes"/>
      <point x="547.0" y="90.0"/>
      <point x="565.0" y="72.0"/>
      <point x="565.0" y="50.0" type="curve" smooth="yes"/>
      <point x="565.0" y="28.0"/>
      <point x="547.0" y="10.0"/>
      <point x="525.0" y="10.0" type="curve" smooth="yes"/>
      <point x="75.0" y="10.0" type="line" smooth="yes"/>
      <point x="53.0" y="10.0"/>
      <point x="35.0" y="28.0"/>
    </contour>
    <contour>
      <point x="135.0" y="350.0" type="curve" smooth="yes"/>
      <point x="135.0" y="372.0"/>
      <point x="153.0" y="390.0"/>
      <point x="175.0" y="390.0" type="curve" smooth="yes"/>
      <point x="425.0" y="390.0" type="line" smooth="yes"/>
      <point x="447.0" y="390.0"/>
      <point x="465.0" y="372.0"/>
      <point x="465.0" y="350.0" type="curve" smooth="yes"/>
      <point x="465.0" y="328.0"/>
      <point x="447.0" y="310.0"/>
      <point x="425.0" y="310.0" type="curve" smooth="yes"/>
      <point x="175.0" y="310.0" type="line" smooth="yes"/>
      <point x="153.0" y="310.0"/>
      <point x="135.0" y="328.0"/>
    </contour>
    <contour>
      <point x="35.0" y="650.0" type="curve" smooth="yes"/>
      <point x="35.0" y="672.0"/>
      <point x="53.0" y="690.0"/>
      <point x="75.0" y="690.0" type="curve" smooth="yes"/>
      <point x="525.0" y="690.0" type="line" smooth="yes"/>
      <point x="547.0" y="690.0"/>
      <point x="565.0" y="672.0"/>
      <point x="565.0" y="650.0" type="curve" smooth="yes"/>
      <point x="565.0" y="628.0"/>
      <point x="547.0" y="610.0"/>
      <point x="525.0" y="610.0" type="curve" smooth="yes"/>
      <point x="75.0" y="610.0" type="line" smooth="yes"/>
      <point x="53.0" y="610.0"/>
      <point x="35.0" y="628.0"/>
    </contour>
  </outline>
</glyph>
<glyph name="exclam-ar" format="2">
  <advance width="550"/>
  <unicode hex="055C"/>
  <outline>
    <contour>
      <point x="85.0" y="450.0" type="curve" smooth="yes"/>
      <point x="85.0" y="472.0"/>
      <point x="103.0" y="490.0"/>
      <point x="125.0" y="490.0" type="curve" smooth="yes"/>
      <point x="175.0" y="490.0" type="line" smooth="yes"/>
      <point x="197.0" y="490.0"/>
      <point x="215.0" y="472.0"/>
      <point x="215.0" y="450.0" type="curve" smooth="yes"/>
      <point x="215.0" y="428.0"/>
      <point x="197.0" y="410.0"/>
      <point x="175.0" y="410.0" type="curve" smooth="yes"/>
      <point x="125.0" y="410.0" type="line" smooth="yes"/>
      <point x="103.0" y="410.0"/>
      <point x="85.0" y="428.0"/>
    </contour>
    <contour>
      <point x="185.0" y="550.0" type="curve" smooth="yes"/>
      <point x="185.0" y="572.0"/>
      <point x="203.0" y="590.0"/>
      <point x="225.0" y="590.0" type="curve" smooth="yes"/>
      <point x="275.0" y="590.0" type="line" smooth="yes"/>
      <point x="284.437927657" y="590.0"/>
      <point x="293.1397026" y="586.687312784"/>
      <point x="300.0" y="581.167263181" type="curve"/>
      <point x="306.617318921" y="586.491803293"/>
      <point x="314.947982254" y="589.762573036"/>
      <point x="324.0" y="590.0" type="curve" smooth="yes"/>
      <point x="375.0" y="590.0" type="line"/>
      <point x="375.0" y="590.0"/>
      <point x="376.0" y="590.0"/>
      <point x="376.0" y="589.987582412" type="curve" smooth="yes"/>
      <point x="397.542836881" y="589.452084094"/>
      <point x="415.0" y="571.665726838"/>
      <point x="415.0" y="550.0" type="curve" smooth="yes"/>
      <point x="415.0" y="528.334273162"/>
      <point x="397.542836881" y="510.547915906"/>
      <point x="376.0" y="510.0" type="curve" smooth="yes"/>
      <point x="325.0" y="510.0" type="line"/>
      <point x="325.0" y="510.0"/>
      <point x="324.0" y="510.0"/>
      <point x="324.0" y="510.012417588" type="curve" smooth="yes"/>
      <point x="314.947982254" y="510.237426964"/>
      <point x="306.617318921" y="513.508196707"/>
      <point x="300.0" y="518.832736819" type="curve"/>
      <point x="293.1397026" y="513.312687216"/>
      <point x="284.437927657" y="510.0"/>
      <point x="275.0" y="510.0" type="curve" smooth="yes"/>
      <point x="225.0" y="510.0" type="line" smooth="yes"/>
      <point x="203.0" y="510.0"/>
      <point x="185.0" y="528.0"/>
    </contour>
    <contour>
      <point x="385.0" y="650.0" type="curve" smooth="yes"/>
      <point x="385.0" y="672.0"/>
      <point x="403.0" y="690.0"/>
      <point x="425.0" y="690.0" type="curve" smooth="yes"/>
      <point x="475.0" y="690.0" type="line" smooth="yes"/>
      <point x="497.0" y="690.0"/>
      <point x="515.0" y="672.0"/>
      <point x="515.0" y="650.0" type="curve" smooth="yes"/>
      <point x="515.0" y="628.0"/>
      <point x="497.0" y="610.0"/>
      <point x="475.0" y="610.0" type="curve" smooth="yes"/>
      <point x="425.0" y="610.0" type="line" smooth="yes"/>
      <point x="403.0" y="610.0"/>
      <point x="385.0" y="628.0"/>
    </contour>
  </outline>
</glyph>
<glyph name="abbrev-ar" format="2">
  <advance width="600"/>
  <unicode hex="055F"/>
  <outline>
    <contour>
      <point x="35.0" y="550.0" type="curve" smooth="yes"/>
      <point x="35.0" y="572.0"/>
      <point x="53.0" y="590.0"/>
      <point x="75.0" y="590.0" type="curve" smooth="yes"/>
      <point x="525.0" y="590.0" type="line" smooth="yes"/>
      <point x="547.0" y="590.0"/>
      <point x="565.0" y="572.0"/>
      <point x="565.0" y="550.0" type="curve" smooth="yes"/>
      <point x="565.0" y="528.0"/>
      <point x="547.0" y="510.0"/>
      <point x="525.0" y="510.0" type="curve" smooth="yes"/>
      <point x="75.0" y="510.0" type="line" smooth="yes"/>
      <point x="53.0" y="510.0"/>
      <point x="35.0" y="528.0"/>
    </contour>
    <contour>
      <point x="35.0" y="650.0" type="curve" smooth="yes"/>
      <point x="35.0" y="672.0"/>
      <point x="53.0" y="690.0"/>
      <point x="75.0" y="690.0" type="curve" smooth="yes"/>
      <point x="125.0" y="690.0" type="line" smooth="yes"/>
      <point x="147.0" y="690.0"/>
      <point x="165.0" y="672.0"/>
      <point x="165.0" y="650.0" type="curve" smooth="yes"/>
      <point x="165.0" y="628.0"/>
      <point x="147.0" y="610.0"/>
      <point x="125.0" y="610.0" type="curve" smooth="yes"/>
      <point x="75.0" y="610.0" type="line" smooth="yes"/>
      <point x="53.0" y="610.0"/>
      <point x="35.0" y="628.0"/>
    </contour>
  </outline>
</glyph>
<glyph name="uni05C3" format="2">
  <advance width="200"/>
  <unicode hex="05C3"/>
  <outline>
    <contour>
      <point x="35.0" y="50.0" type="curve" smooth="yes"/>
      <point x="35.0" y="72.0"/>
      <point x="53.0" y="90.0"/>
      <point x="75.0" y="90.0" type="curve" smooth="yes"/>
      <point x="125.0" y="90.0" type="line" smooth="yes"/>
      <point x="147.0" y="90.0"/>
      <point x="165.0" y="72.0"/>
      <point x="165.0" y="50.0" type="curve" smooth="yes"/>
      <point x="165.0" y="28.0"/>
      <point x="147.0" y="10.0"/>
      <point x="125.0" y="10.0" type="curve" smooth="yes"/>
      <point x="75.0" y="10.0" type="line" smooth="yes"/>
      <point x="53.0" y="10.0"/>
      <point x="35.0" y="28.0"/>
    </contour>
    <contour>
      <point x="35.0" y="550.0" type="curve" smooth="yes"/>
      <point x="35.0" y="572.0"/>
      <point x="53.0" y="590.0"/>
      <point x="75.0" y="590.0" type="curve" smooth="yes"/>
      <point x="125.0" y="590.0" type="line" smooth="yes"/>
      <point x="147.0" y="590.0"/>
      <point x="165.0" y="572.0"/>
      <point x="165.0" y="550.0" type="curve" smooth="yes"/>
      <point x="165.0" y="528.0"/>
      <point x="147.0" y="510.0"/>
      <point x="125.0" y="510.0" type="curve" smooth="yes"/>
      <point x="75.0" y="510.0" type="line" smooth="yes"/>
      <point x="53.0" y="510.0"/>
      <point x="35.0" y="528.0"/>
    </contour>
  </outline>
</glyph>
<glyph name="uni10A5" format="2">
  <advance width="700"/>
  <unicode hex="10A5"/>
  <outline>
    <contour>
      <point x="335.0" y="50.0" type="curve" smooth="yes"/>
      <point x="335.0" y="72.0"/>
      <point x="353.0" y="90.0"/>
      <point x="375.0" y="90.0" type="curve" smooth="yes"/>
      <point x="425.0" y="90.0" type="line" smooth="yes"/>
      <point x="447.0" y="90.0"/>
      <point x="465.0" y="72.0"/>
      <point x="465.0" y="50.0" type="curve" smooth="yes"/>
      <point x="465.0" y="28.0"/>
      <point x="447.0" y="10.0"/>
      <point x="425.0" y="10.0" type="curve" smooth="yes"/>
      <point x="375.0" y="10.0" type="line" smooth="yes"/>
      <point x="353.0" y="10.0"/>
      <point x="335.0" y="28.0"/>
    </contour>
    <contour>
      <point x="335.0" y="150.0" type="curve" smooth="yes"/>
      <point x="335.0" y="172.0"/>
      <point x="353.0" y="190.0"/>
      <point x="375.0" y="190.0" type="curve" smooth="yes"/>
      <point x="425.0" y="190.0" type="line" smooth="yes"/>
      <point x="447.0" y="190.0"/>
      <point x="465.0" y="172.0"/>
      <point x="465.0" y="150.0" type="curve" smooth="yes"/>
      <point x="465.0" y="128.0"/>
      <point x="447.0" y="110.0"/>
      <point x="425.0" y="110.0" type="curve" smooth="yes"/>
      <point x="375.0" y="110.0" type="line" smooth="yes"/>
      <point x="353.0" y="110.0"/>
      <point x="335.0" y="128.0"/>
    </contour>
    <contour>
      <point x="535.0" y="250.0" type="curve" smooth="yes"/>
      <point x="535.0" y="272.0"/>
      <point x="553.0" y="290.0"/>
      <point x="575.0" y="290.0" type="curve" smooth="yes"/>
      <point x="625.0" y="290.0" type="line" smooth="yes"/>
      <point x="647.0" y="290.0"/>
      <point x="665.0" y="272.0"/>
      <point x="665.0" y="250.0" type="curve" smooth="yes"/>
      <point x="665.0" y="228.0"/>
      <point x="647.0" y="210.0"/>
      <point x="625.0" y="210.0" type="curve" smooth="yes"/>
      <point x="575.0" y="210.0" type="line" smooth="yes"/>
      <point x="553.0" y="210.0"/>
      <point x="535.0" y="228.0"/>
    </contour>
    <contour>
      <point x="335.0" y="250.0" type="curve" smooth="yes"/>
      <point x="335.0" y="272.0"/>
      <point x="353.0" y="290.0"/>
      <point x="375.0" y="290.0" type="curve" smooth="yes"/>
      <point x="425.0" y="290.0" type="line" smooth="yes"/>
      <point x="447.0" y="290.0"/>
      <point x="465.0" y="272.0"/>
      <point x="465.0" y="250.0" type="curve" smooth="yes"/>
      <point x="465.0" y="228.0"/>
      <point x="447.0" y="210.0"/>
      <point x="425.0" y="210.0" type="curve" smooth="yes"/>
      <point x="375.0" y="210.0" type="line" smooth="yes"/>
      <point x="353.0" y="210.0"/>
      <point x="335.0" y="228.0"/>
    </contour>
    <contour>
      <point x="335.0" y="350.0" type="curve" smooth="yes"/>
      <point x="335.0" y="372.0"/>
      <point x="353.0" y="390.0"/>
      <point x="375.0" y="390.0" type="curve" smooth="yes"/>
      <point x="625.0" y="390.0" type="line" smooth="yes"/>
      <point x="647.0" y="390.0"/>
      <point x="665.0" y="372.0"/>
      <point x="665.0" y="350.0" type="curve" smooth="yes"/>
      <point x="665.0" y="328.0"/>
      <point x="647.0" y="310.0"/>
      <point x="625.0" y="310.0" type="curve" smooth="yes"/>
      <point x="375.0" y="310.0" type="line" smooth="yes"/>
      <point x="353.0" y="310.0"/>
      <point x="335.0" y="328.0"/>
    </contour>
    <contour>
      <point x="335.0" y="450.0" type="curve" smooth="yes"/>
      <point x="335.0" y="472.0"/>
      <point x="353.0" y="490.0"/>
      <point x="375.0" y="490.0" type="curve" smooth="yes"/>
      <point x="425.0" y="490.0" type="line" smooth="yes"/>
      <point x="447.0" y="490.0"/>
      <point x="465.0" y="472.0"/>
      <point x="465.0" y="450.0" type="curve" smooth="yes"/>
      <point x="465.0" y="428.0"/>
      <point x="447.0" y="410.0"/>
      <point x="425.0" y="410.0" type="curve" smooth="yes"/>
      <point x="375.0" y="410.0" type="line" smooth="yes"/>
      <point x="353.0" y="410.0"/>
      <point x="335.0" y="428.0"/>
    </contour>
    <contour>
      <point x="35.0" y="450.0" type="curve" smooth="yes"/>
      <point x="35.0" y="472.0"/>
      <point x="53.0" y="490.0"/>
      <point x="75.0" y="490.0" type="curve" smooth="yes"/>
      <point x="125.0" y="490.0" type="line" smooth="yes"/>
      <point x="147.0" y="490.0"/>
      <point x="165.0" y="472.0"/>
      <point x="165.0" y="450.0" type="curve" smooth="yes"/>
      <point x="165.0" y="428.0"/>
      <point x="147.0" y="410.0"/>
      <point x="125.0" y="410.0" type="curve" smooth="yes"/>
      <point x="75.0" y="410.0" type="line" smooth="yes"/>
      <point x="53.0" y="410.0"/>
      <point x="35.0" y="428.0"/>
    </contour>
    <contour>
      <point x="335.0" y="550.0" type="curve" smooth="yes"/>
      <point x="335.0" y="572.0"/>
      <point x="353.0" y="590.0"/>
      <point x="375.0" y="590.0" type="curve" smooth="yes"/>
      <point x="425.0" y="590.0" type="line" smooth="yes"/>
      <point x="447.0" y="590.0"/>
      <point x="465.0" y="572.0"/>
      <point x="465.0" y="550.0" type="curve" smooth="yes"/>
      <point x="465.0" y="528.0"/>
      <point x="447.0" y="510.0"/>
      <point x="425.0" y="510.0" type="curve" smooth="yes"/>
      <point x="375.0" y="510.0" type="line" smooth="yes"/>
      <point x="353.0" y="510.0"/>
      <point x="335.0" y="528.0"/>
    </contour>
    <contour>
      <point x="35.0" y="550.0" type="curve" smooth="yes"/>
      <point x="35.0" y="572.0"/>
      <point x="53.0" y="590.0"/>
      <point x="75.0" y="590.0" type="curve" smooth="yes"/>
      <point x="125.0" y="590.0" type="line" smooth="yes"/>
      <point x="147.0" y="590.0"/>
      <point x="165.0" y="572.0"/>
      <point x="165.0" y="550.0" type="curve" smooth="yes"/>
      <point x="165.0" y="528.0"/>
      <point x="147.0" y="510.0"/>
      <point x="125.0" y="510.0" type="curve" smooth="yes"/>
      <point x="75.0" y="510.0" type="line" smooth="yes"/>
      <point x="53.0" y="510.0"/>
      <point x="35.0" y="528.0"/>
    </contour>
    <contour>
      <point x="35.0" y="650.0" type="curve" smooth="yes"/>
      <point x="35.0" y="672.0"/>
      <point x="53.0" y="690.0"/>
      <point x="75.0" y="690.0" type="curve" smooth="yes"/>
      <point x="425.0" y="690.0" type="line" smooth="yes"/>
      <point x="447.0" y="690.0"/>
      <point x="465.0" y="672.0"/>
      <point x="465.0" y="650.0" type="curve" smooth="yes"/>
      <point x="465.0" y="628.0"/>
      <point x="447.0" y="610.0"/>
      <point x="425.0" y="610.0" type="curve" smooth="yes"/>
      <point x="75.0" y="610.0" type="line" smooth="yes"/>
      <point x="53.0" y="610.0"/>
      <point x="35.0" y="628.0"/>
    </contour>
  </outline>
</glyph>
<glyph name="uni10FB" format="2">
  <advance width="400"/>
  <unicode hex="10FB"/>
  <outline>
    <contour>
      <point x="35.0" y="50.0" type="curve" smooth="yes"/>
      <point x="35.0" y="72.0"/>
      <point x="53.0" y="90.0"/>
      <point x="75.0" y="90.0" type="curve" smooth="yes"/>
      <point x="125.0" y="90.0" type="line" smooth="yes"/>
      <point x="147.0" y="90.0"/>
      <point x="165.0" y="72.0"/>
      <point x="165.0" y="50.0" type="curve" smooth="yes"/>
      <point x="165.0" y="28.0"/>
      <point x="147.0" y="10.0"/>
      <point x="125.0" y="10.0" type="curve" smooth="yes"/>
      <point x="75.0" y="10.0" type="line" smooth="yes"/>
      <point x="53.0" y="10.0"/>
      <point x="35.0" y="28.0"/>
    </contour>
    <contour>
      <point x="235.0" y="250.0" type="curve" smooth="yes"/>
      <point x="235.0" y="272.0"/>
      <point x="253.0" y="290.0"/>
      <point x="275.0" y="290.0" type="curve" smooth="yes"/>
      <point x="325.0" y="290.0" type="line" smooth="yes"/>
      <point x="347.0" y="290.0"/>
      <point x="365.0" y="272.0"/>
      <point x="365.0" y="250.0" type="curve" smooth="yes"/>
      <point x="365.0" y="228.0"/>
      <point x="347.0" y="210.0"/>
      <point x="325.0" y="210.0" type="curve" smooth="yes"/>
      <point x="275.0" y="210.0" type="line" smooth="yes"/>
      <point x="253.0" y="210.0"/>
      <point x="235.0" y="228.0"/>
    </contour>
    <contour>
      <point x="35.0" y="450.0" type="curve" smooth="yes"/>
      <point x="35.0" y="472.0"/>
      <point x="53.0" y="490.0"/>
      <point x="75.0" y="490.0" type="curve" smooth="yes"/>
      <point x="125.0" y="490.0" type="line" smooth="yes"/>
      <point x="147.0" y="490.0"/>
      <point x="165.0" y="472.0"/>
      <point x="165.0" y="450.0" type="curve" smooth="yes"/>
      <point x="165.0" y="428.0"/>
      <point x="147.0" y="410.0"/>
      <point x="125.0" y="410.0" type="curve" smooth="yes"/>
      <point x="75.0" y="410.0" type="line" smooth="yes"/>
      <point x="53.0" y="410.0"/>
      <point x="35.0" y="428.0"/>
    </contour>
  </outline>
</glyph>
<glyph name="uni1E2A" format="2">
  <advance width="600"/>
  <unicode hex="1E2A"/>
  <outline>
    <contour>
      <point x="35.0" y="650.0" type="curve" smooth="yes"/>
      <point x="35.0" y="672.0"/>
      <point x="53.0" y="690.0"/>
      <point x="75.0" y="690.0" type="curve" smooth="yes"/>
      <point x="125.0" y="690.0" type="line" smooth="yes"/>
      <point x="147.0" y="690.0"/>
      <point x="165.0" y="672.0"/>
      <point x="165.0" y="650.0" type="curve" smooth="yes"/>
      <point x="165.0" y="628.0"/>
      <point x="147.0" y="610.0"/>
      <point x="125.0" y="610.0" type="curve" smooth="yes"/>
      <point x="75.0" y="610.0" type="line" smooth="yes"/>
      <point x="53.0" y="610.0"/>
      <point x="35.0" y="628.0"/>
    </contour>
    <contour>
      <point x="435.0" y="650.0" type="curve" smooth="yes"/>
      <point x="435.0" y="672.0"/>
      <point x="453.0" y="690.0"/>
      <point x="475.0" y="690.0" type="curve" smooth="yes"/>
      <point x="525.0" y="690.0" type="line" smooth="yes"/>
      <point x="547.0" y="690.0"/>
      <point x="565.0" y="672.0"/>
      <point x="565.0" y="650.0" type="curve" smooth="yes"/>
      <point x="565.0" y="628.0"/>
      <point x="547.0" y="610.0"/>
      <point x="525.0" y="610.0" type="curve" smooth="yes"/>
      <point x="475.0" y="610.0" type="line" smooth="yes"/>
      <point x="453.0" y="610.0"/>
      <point x="435.0" y="628.0"/>
    </contour>
    <contour>
      <point x="35.0" y="550.0" type="curve" smooth="yes"/>
      <point x="35.0" y="572.0"/>
      <point x="53.0" y="590.0"/>
      <point x="75.0" y="590.0" type="curve" smooth="yes"/>
      <point x="125.0" y="590.0" type="line" smooth="yes"/>
      <point x="147.0" y="590.0"/>
      <point x="165.0" y="572.0"/>
      <point x="165.0" y="550.0" type="curve" smooth="yes"/>
      <point x="165.0" y="528.0"/>
      <point x="147.0" y="510.0"/>
      <point x="125.0" y="510.0" type="curve" smooth="yes"/>
      <point x="75.0" y="510.0" type="line" smooth="yes"/>
      <point x="53.0" y="510.0"/>
      <point x="35.0" y="528.0"/>
    </contour>
    <contour>
      <point x="435.0" y="550.0" type="curve" smooth="yes"/>
      <point x="435.0" y="572.0"/>
      <point x="453.0" y="590.0"/>
      <point x="475.0" y="590.0" type="curve" smooth="yes"/>
      <point x="525.0" y="590.0" type="line" smooth="yes"/>
      <point x="547.0" y="590.0"/>
      <point x="565.0" y="572.0"/>
      <point x="565.0" y="550.0" type="curve" smooth="yes"/>
      <point x="565.0" y="528.0"/>
      <point x="547.0" y="510.0"/>
      <point x="525.0" y="510.0" type="curve" smooth="yes"/>
      <point x="475.0" y="510.0" type="line" smooth="yes"/>
      <point x="453.0" y="510.0"/>
      <point x="435.0" y="528.0"/>
    </contour>
    <contour>
      <point x="35.0" y="450.0" type="curve" smooth="yes"/>
      <point x="35.0" y="472.0"/>
      <point x="53.0" y="490.0"/>
      <point x="75.0" y="490.0" type="curve" smooth="yes"/>
      <point x="125.0" y="490.0" type="line" smooth="yes"/>
      <point x="134.437927657" y="490.0"/>
      <point x="143.1397026" y="486.687312784"/>
      <point x="150.0" y="481.167263181" type="curve"/>
      <point x="156.8602974" y="486.687312784"/>
      <point x="165.562072343" y="490.0"/>
      <point x="175.0" y="490.0" type="curve" smooth="yes"/>
      <point x="225.0" y="490.0" type="line" smooth="yes"/>
      <point x="234.437927657" y="490.0"/>
      <point x="243.1397026" y="486.687312784"/>
      <point x="250.0" y="481.167263181" type="curve"/>
      <point x="256.8602974" y="486.687312784"/>
      <point x="265.562072343" y="490.0"/>
      <point x="275.0" y="490.0" type="curve" smooth="yes"/>
      <point x="325.0" y="490.0" type="line" smooth="yes"/>
      <point x="334.437927657" y="490.0"/>
      <point x="343.1397026" y="486.687312784"/>
      <point x="350.0" y="481.167263181" type="curve"/>
      <point x="356.8602974" y="486.687312784"/>
      <point x="365.562072343" y="490.0"/>
      <point x="375.0" y="490.0" type="curve" smooth="yes"/>
      <point x="425.0" y="490.0" type="line" smooth="yes"/>
      <point x="434.437927657" y="490.0"/>
      <point x="443.1397026" y="486.687312784"/>
      <point x="450.0" y="481.167263181" type="curve"/>
      <point x="456.8602974" y="486.687312784"/>
      <point x="465.562072343" y="490.0"/>
      <point x="475.0" y="490.0" type="curve" smooth="yes"/>
      <point x="525.0" y="490.0" type="line" smooth="yes"/>
      <point x="547.0" y="490.0"/>
      <point x="565.0" y="472.0"/>
      <point x="565.0" y="450.0" type="curve" smooth="yes"/>
      <point x="565.0" y="428.0"/>
      <point x="547.0" y="410.0"/>
      <point x="525.0" y="410.0" type="curve" smooth="yes"/>
      <point x="475.0" y="410.0" type="line" smooth="yes"/>
      <point x="465.562072343" y="410.0"/>
      <point x="456.8602974" y="413.312687216"/>
      <point x="450.0" y="418.832736819" type="curve"/>
      <point x="443.1397026" y="413.312687216"/>
      <point x="434.437927657" y="410.0"/>
      <point x="425.0" y="410.0" type="curve" smooth="yes"/>
      <point x="375.0" y="410.0" type="line" smooth="yes"/>
      <point x="365.562072343" y="410.0"/>
      <point x="356.8602974" y="413.312687216"/>
      <point x="350.0" y="418.832736819" type="curve"/>
      <point x="343.1397026" y="413.312687216"/>
      <point x="334.437927657" y="410.0"/>
      <point x="325.0" y="410.0" type="curve" smooth="yes"/>
      <point x="275.0" y="410.0" type="line" smooth="yes"/>
      <point x="265.562072343" y="410.0"/>
      <point x="256.8602974" y="413.312687216"/>
      <point x="250.0" y="418.832736819" type="curve"/>
      <point x="243.1397026" y="413.312687216"/>
      <point x="234.437927657" y="410.0"/>
      <point x="225.0" y="410.0" type="curve" smooth="yes"/>
      <point x="175.0" y="410.0" type="line" smooth="yes"/>
      <point x="165.562072343" y="410.0"/>
      <point x="156.8602974" y="413.312687216"/>
      <point x="150.0" y="418.832736819" type="curve"/>
      <point x="143.1397026" y="413.312687216"/>
      <point x="134.437927657" y="410.0"/>
      <point x="125.0" y="410.0" type="curve" smooth="yes"/>
      <point x="75.0" y="410.0" type="line" smooth="yes"/>
      <point x="53.0" y="410.0"/>
      <point x="35.0" y="428.0"/>
    </contour>
    <contour>
      <point x="35.0" y="350.0" type="curve" smooth="yes"/>
      <point x="35.0" y="372.0"/>
      <point x="53.0" y="390.0"/>
      <point x="75.0" y="390.0" type="curve" smooth="yes"/>
      <point x="125.0" y="390.0" type="line" smooth="yes"/>
      <point x="147.0" y="390.0"/>
      <point x="165.0" y="372.0"/>
      <point x="165.0" y="350.0" type="curve" smooth="yes"/>
      <point x="165.0" y="328.0"/>
      <point x="147.0" y="310.0"/>
      <point x="125.0" y="310.0" type="curve" smooth="yes"/>
      <point x="75.0" y="310.0" type="line" smooth="yes"/>
      <point x="53.0" y="310.0"/>
      <point x="35.0" y="328.0"/>
    </contour>
    <contour>
      <point x="435.0" y="350.0" type="curve" smooth="yes"/>
      <point x="435.0" y="372.0"/>
      <point x="453.0" y="390.0"/>
      <point x="475.0" y="390.0" type="curve" smooth="yes"/>
      <point x="525.0" y="390.0" type="line" smooth="yes"/>
      <point x="547.0" y="390.0"/>
      <point x="565.0" y="372.0"/>
      <point x="565.0" y="350.0" type="curve" smooth="yes"/>
      <point x="565.0" y="328.0"/>
      <point x="547.0" y="310.0"/>
      <point x="525.0" y="310.0" type="curve" smooth="yes"/>
      <point x="475.0" y="310.0" type="line" smooth="yes"/>
      <point x="453.0" y="310.0"/>
      <point x="435.0" y="328.0"/>
    </contour>
    <contour>
      <point x="35.0" y="250.0" type="curve" smooth="yes"/>
      <point x="35.0" y="272.0"/>
      <point x="53.0" y="290.0"/>
      <point x="75.0" y="290.0" type="curve" smooth="yes"/>
      <point x="125.0" y="290.0" type="line" smooth="yes"/>
      <point x="147.0" y="290.0"/>
      <point x="165.0" y="272.0"/>
      <point x="165.0" y="250.0" type="curve" smooth="yes"/>
      <point x="165.0" y="228.0"/>
      <point x="147.0" y="210.0"/>
      <point x="125.0" y="210.0" type="curve" smooth="yes"/>
      <point x="75.0" y="210.0" type="line" smooth="yes"/>
      <point x="53.0" y="210.0"/>
      <point x="35.0" y="228.0"/>
    </contour>
    <contour>
      <point x="435.0" y="250.0" type="curve" smooth="yes"/>
      <point x="435.0" y="272.0"/>
      <point x="453.0" y="290.0"/>
      <point x="475.0" y="290.0" type="curve" smooth="yes"/>
      <point x="525.0" y="290.0" type="line" smooth="yes"/>
      <point x="547.0" y="290.0"/>
      <point x="565.0" y="272.0"/>
      <point x="565.0" y="250.0" type="curve" smooth="yes"/>
      <point x="565.0" y="228.0"/>
      <point x="547.0" y="210.0"/>
      <point x="525.0" y="210.0" type="curve" smooth="yes"/>
      <point x="475.0" y="210.0" type="line" smooth="yes"/>
      <point x="453.0" y="210.0"/>
      <point x="435.0" y="228.0"/>
    </contour>
    <contour>
      <point x="35.0" y="150.0" type="curve" smooth="yes"/>
      <point x="35.0" y="172.0"/>
      <point x="53.0" y="190.0"/>
      <point x="75.0" y="190.0" type="curve" smooth="yes"/>
      <point x="125.0" y="190.0" type="line" smooth="yes"/>
      <point x="147.0" y="190.0"/>
      <point x="165.0" y="172.0"/>
      <point x="165.0" y="150.0" type="curve" smooth="yes"/>
      <point x="165.0" y="128.0"/>
      <point x="147.0" y="110.0"/>
      <point x="125.0" y="110.0" type="curve" smooth="yes"/>
      <point x="75.0" y="110.0" type="line" smooth="yes"/>
      <point x="53.0" y="110.0"/>
      <point x="35.0" y="128.0"/>
    </contour>
    <contour>
      <point x="435.0" y="150.0" type="curve" smooth="yes"/>
      <point x="435.0" y="172.0"/>
      <point x="453.0" y="190.0"/>
      <point x="475.0" y="190.0" type="curve" smooth="yes"/>
      <point x="525.0" y="190.0" type="line" smooth="yes"/>
      <point x="547.0" y="190.0"/>
      <point x="565.0" y="172.0"/>
      <point x="565.0" y="150.0" type="curve" smooth="yes"/>
      <point x="565.0" y="128.0"/>
      <point x="547.0" y="110.0"/>
      <point x="525.0" y="110.0" type="curve" smooth="yes"/>
      <point x="475.0" y="110.0" type="line" smooth="yes"/>
      <point x="453.0" y="110.0"/>
      <point x="435.0" y="128.0"/>
    </contour>
    <component base="uni032E" xOffset="300.0" yOffset="100.0"/>
  </outline>
</glyph>
<glyph name="bullet" format="2">
  <advance width="300"/>
  <unicode hex="2022"/>
  <outline>
    <contour>
      <point x="35.0" y="350.0" type="curve" smooth="yes"/>
      <point x="35.0" y="372.0"/>
      <point x="53.0" y="390.0"/>
      <point x="75.0" y="390.0" type="curve" smooth="yes"/>
      <point x="225.0" y="390.0" type="line" smooth="yes"/>
      <point x="247.0" y="390.0"/>
      <point x="265.0" y="372.0"/>
      <point x="265.0" y="350.0" type="curve" smooth="yes"/>
      <point x="265.0" y="328.0"/>
      <point x="247.0" y="310.0"/>
      <point x="225.0" y="310.0" type="curve" smooth="yes"/>
      <point x="75.0" y="310.0" type="line" smooth="yes"/>
      <point x="53.0" y="310.0"/>
      <point x="35.0" y="328.0"/>
    </contour>
    <contour>
      <point x="35.0" y="450.0" type="curve" smooth="yes"/>
      <point x="35.0" y="472.0"/>
      <point x="53.0" y="490.0"/>
      <point x="75.0" y="490.0" type="curve" smooth="yes"/>
      <point x="225.0" y="490.0" type="line" smooth="yes"/>
      <point x="247.0" y="490.0"/>
      <point x="265.0" y="472.0"/>
      <point x="265.0" y="450.0" type="curve" smooth="yes"/>
      <point x="265.0" y="428.0"/>
      <point x="247.0" y="410.0"/>
      <point x="225.0" y="410.0" type="curve" smooth="yes"/>
      <point x="75.0" y="410.0" type="line" smooth="yes"/>
      <point x="53.0" y="410.0"/>
      <point x="35.0" y="428.0"/>
    </contour>
  </outline>
</glyph>
<glyph name="ellipsis" format="2">
  <advance width="600"/>
  <unicode hex="2026"/>
  <outline>
    <contour>
      <point x="235.0" y="50.0" type="curve" smooth="yes"/>
      <point x="235.0" y="72.0"/>
      <point x="253.0" y="90.0"/>
      <point x="275.0" y="90.0" type="curve" smooth="yes"/>
      <point x="325.0" y="90.0" type="line" smooth="yes"/>
      <point x="347.0" y="90.0"/>
      <point x="365.0" y="72.0"/>
      <point x="365.0" y="50.0" type="curve" smooth="yes"/>
      <point x="365.0" y="28.0"/>
      <point x="347.0" y="10.0"/>
      <point x="325.0" y="10.0" type="curve" smooth="yes"/>
      <point x="275.0" y="10.0" type="line" smooth="yes"/>
      <point x="253.0" y="10.0"/>
      <point x="235.0" y="28.0"/>
    </contour>
    <contour>
      <point x="435.0" y="50.0" type="curve" smooth="yes"/>
      <point x="435.0" y="72.0"/>
      <point x="453.0" y="90.0"/>
      <point x="475.0" y="90.0" type="curve" smooth="yes"/>
      <point x="525.0" y="90.0" type="line" smooth="yes"/>
      <point x="547.0" y="90.0"/>
      <point x="565.0" y="72.0"/>
      <point x="565.0" y="50.0" type="curve" smooth="yes"/>
      <point x="565.0" y="28.0"/>
      <point x="547.0" y="10.0"/>
      <point x="525.0" y="10.0" type="curve" smooth="yes"/>
      <point x="475.0" y="10.0" type="line" smooth="yes"/>
      <point x="453.0" y="10.0"/>
      <point x="435.0" y="28.0"/>
    </contour>
    <contour>
      <point x="35.0" y="50.0" type="curve" smooth="yes"/>
      <point x="35.0" y="72.0"/>
      <point x="53.0" y="90.0"/>
      <point x="75.0" y="90.0" type="curve" smooth="yes"/>
      <point x="125.0" y="90.0" type="line" smooth="yes"/>
      <point x="147.0" y="90.0"/>
      <point x="165.0" y="72.0"/>
      <point x="165.0" y="50.0" type="curve" smooth="yes"/>
      <point x="165.0" y="28.0"/>
      <point x="147.0" y="10.0"/>
      <point x="125.0" y="10.0" type="curve" smooth="yes"/>
      <point x="75.0" y="10.0" type="line" smooth="yes"/>
      <point x="53.0" y="10.0"/>
      <point x="35.0" y="28.0"/>
    </contour>
  </outline>
</glyph>
<glyph name="perthousand" format="2">
  <advance width="900"/>
  <unicode hex="2030"/>
  <outline>
    <contour>
      <point x="635.0" y="150.0" type="curve" smooth="yes"/>
      <point x="635.0" y="172.0"/>
      <point x="653.0" y="190.0"/>
      <point x="675.0" y="190.0" type="curve" smooth="yes"/>
      <point x="725.0" y="190.0" type="line" smooth="yes"/>
      <point x="734.437927657" y="190.0"/>
      <point x="743.1397026" y="186.687312784"/>
      <point x="750.0" y="181.167263181" type="curve"/>
      <point x="756.8602974" y="186.687312784"/>
      <point x="765.562072343" y="190.0"/>
      <point x="775.0" y="190.0" type="curve" smooth="yes"/>
      <point x="825.0" y="190.0" type="line" smooth="yes"/>
      <point x="847.0" y="190.0"/>
      <point x="865.0" y="172.0"/>
      <point x="865.0" y="150.0" type="curve" smooth="yes"/>
      <point x="865.0" y="128.0"/>
      <point x="847.0" y="110.0"/>
      <point x="825.0" y="110.0" type="curve" smooth="yes"/>
      <point x="775.0" y="110.0" type="line" smooth="yes"/>
      <point x="765.562072343" y="110.0"/>
      <point x="756.8602974" y="113.312687216"/>
      <point x="750.0" y="118.832736819" type="curve"/>
      <point x="743.1397026" y="113.312687216"/>
      <point x="734.437927657" y="110.0"/>
      <point x="725.0" y="110.0" type="curve" smooth="yes"/>
      <point x="675.0" y="110.0" type="line" smooth="yes"/>
      <point x="653.0" y="110.0"/>
      <point x="635.0" y="128.0"/>
    </contour>
    <contour>
      <point x="635.0" y="50.0" type="curve" smooth="yes"/>
      <point x="635.0" y="72.0"/>
      <point x="653.0" y="90.0"/>
      <point x="675.0" y="90.0" type="curve" smooth="yes"/>
      <point x="725.0" y="90.0" type="line" smooth="yes"/>
      <point x="734.437927657" y="90.0"/>
      <point x="743.1397026" y="86.6873127843"/>
      <point x="750.0" y="81.1672631814" type="curve"/>
      <point x="756.8602974" y="86.6873127843"/>
      <point x="765.562072343" y="90.0"/>
      <point x="775.0" y="90.0" type="curve" smooth="yes"/>
      <point x="825.0" y="90.0" type="line" smooth="yes"/>
      <point x="847.0" y="90.0"/>
      <point x="865.0" y="72.0"/>
      <point x="865.0" y="50.0" type="curve" smooth="yes"/>
      <point x="865.0" y="28.0"/>
      <point x="847.0" y="10.0"/>
      <point x="825.0" y="10.0" type="curve" smooth="yes"/>
      <point x="775.0" y="10.0" type="line" smooth="yes"/>
      <point x="765.562072343" y="10.0"/>
      <point x="756.8602974" y="13.3126872157"/>
      <point x="750.0" y="18.8327368186" type="curve"/>
      <point x="743.1397026" y="13.3126872157"/>
      <point x="734.437927657" y="10.0"/>
      <point x="725.0" y="10.0" type="curve" smooth="yes"/>
      <point x="675.0" y="10.0" type="line" smooth="yes"/>
      <point x="653.0" y="10.0"/>
      <point x="635.0" y="28.0"/>
    </contour>
    <component base="percent"/>
  </outline>
</glyph>
<glyph name="uni205A" format="2">
  <advance width="200"/>
  <unicode hex="205A"/>
  <outline>
    <contour>
      <point x="35.0" y="50.0" type="curve" smooth="yes"/>
      <point x="35.0" y="72.0"/>
      <point x="53.0" y="90.0"/>
      <point x="75.0" y="90.0" type="curve" smooth="yes"/>
      <point x="125.0" y="90.0" type="line" smooth="yes"/>
      <point x="147.0" y="90.0"/>
      <point x="165.0" y="72.0"/>
      <point x="165.0" y="50.0" type="curve" smooth="yes"/>
      <point x="165.0" y="28.0"/>
      <point x="147.0" y="10.0"/>
      <point x="125.0" y="10.0" type="curve" smooth="yes"/>
      <point x="75.0" y="10.0" type="line" smooth="yes"/>
      <point x="53.0" y="10.0"/>
      <point x="35.0" y="28.0"/>
    </contour>
    <contour>
      <point x="35.0" y="650.0" type="curve" smooth="yes"/>
      <point x="35.0" y="672.0"/>
      <point x="53.0" y="690.0"/>
      <point x="75.0" y="690.0" type="curve" smooth="yes"/>
      <point x="125.0" y="690.0" type="line" smooth="yes"/>
      <point x="147.0" y="690.0"/>
      <point x="165.0" y="672.0"/>
      <point x="165.0" y="650.0" type="curve" smooth="yes"/>
      <point x="165.0" y="628.0"/>
      <point x="147.0" y="610.0"/>
      <point x="125.0" y="610.0" type="curve" smooth="yes"/>
      <point x="75.0" y="610.0" type="line" smooth="yes"/>
      <point x="53.0" y="610.0"/>
      <point x="35.0" y="628.0"/>
    </contour>
  </outline>
</glyph>
<glyph name="uni2076" format="2">
  <advance width="400"/>
  <unicode hex="2076"/>
  <outline>
    <contour>
      <point x="135.0" y="250.0" type="curve" smooth="yes"/>
      <point x="135.0" y="272.0"/>
      <point x="153.0" y="290.0"/>
      <point x="175.0" y="290.0" type="curve" smooth="yes"/>
      <point x="225.0" y="290.0" type="line" smooth="yes"/>
      <point x="247.0" y="290.0"/>
      <point x="265.0" y="272.0"/>
      <point x="265.0" y="250.0" type="curve" smooth="yes"/>
      <point x="265.0" y="228.0"/>
      <point x="247.0" y="210.0"/>
      <point x="225.0" y="210.0" type="curve" smooth="yes"/>
      <point x="175.0" y="210.0" type="line" smooth="yes"/>
      <point x="153.0" y="210.0"/>
      <point x="135.0" y="228.0"/>
    </contour>
    <contour>
      <point x="235.0" y="350.0" type="curve" smooth="yes"/>
      <point x="235.0" y="372.0"/>
      <point x="253.0" y="390.0"/>
      <point x="275.0" y="390.0" type="curve" smooth="yes"/>
      <point x="325.0" y="390.0" type="line" smooth="yes"/>
      <point x="347.0" y="390.0"/>
      <point x="365.0" y="372.0"/>
      <point x="365.0" y="350.0" type="curve" smooth="yes"/>
      <point x="365.0" y="328.0"/>
      <point x="347.0" y="310.0"/>
      <point x="325.0" y="310.0" type="curve" smooth="yes"/>
      <point x="275.0" y="310.0" type="line" smooth="yes"/>
      <point x="253.0" y="310.0"/>
      <point x="235.0" y="328.0"/>
    </contour>
    <contour>
      <point x="35.0" y="350.0" type="curve" smooth="yes"/>
      <point x="35.0" y="372.0"/>
      <point x="53.0" y="390.0"/>
      <point x="75.0" y="390.0" type="curve" smooth="yes"/>
      <point x="125.0" y="390.0" type="line" smooth="yes"/>
      <point x="147.0" y="390.0"/>
      <point x="165.0" y="372.0"/>
      <point x="165.0" y="350.0" type="curve" smooth="yes"/>
      <point x="165.0" y="328.0"/>
      <point x="147.0" y="310.0"/>
      <point x="125.0" y="310.0" type="curve" smooth="yes"/>
      <point x="75.0" y="310.0" type="line" smooth="yes"/>
      <point x="53.0" y="310.0"/>
      <point x="35.0" y="328.0"/>
    </contour>
    <contour>
      <point x="35.0" y="450.0" type="curve" smooth="yes"/>
      <point x="35.0" y="472.0"/>
      <point x="53.0" y="490.0"/>
      <point x="75.0" y="490.0" type="curve" smooth="yes"/>
      <point x="225.0" y="490.0" type="line" smooth="yes"/>
      <point x="247.0" y="490.0"/>
      <point x="265.0" y="472.0"/>
      <point x="265.0" y="450.0" type="curve" smooth="yes"/>
      <point x="265.0" y="428.0"/>
      <point x="247.0" y="410.0"/>
      <point x="225.0" y="410.0" type="curve" smooth="yes"/>
      <point x="75.0" y="410.0" type="line" smooth="yes"/>
      <point x="53.0" y="410.0"/>
      <point x="35.0" y="428.0"/>
    </contour>
    <contour>
      <point x="35.0" y="550.0" type="curve" smooth="yes"/>
      <point x="35.0" y="572.0"/>
      <point x="53.0" y="590.0"/>
      <point x="75.0" y="590.0" type="curve" smooth="yes"/>
      <point x="125.0" y="590.0" type="line" smooth="yes"/>
      <point x="147.0" y="590.0"/>
      <point x="165.0" y="572.0"/>
      <point x="165.0" y="550.0" type="curve" smooth="yes"/>
      <point x="165.0" y="528.0"/>
      <point x="147.0" y="510.0"/>
      <point x="125.0" y="510.0" type="curve" smooth="yes"/>
      <point x="75.0" y="510.0" type="line" smooth="yes"/>
      <point x="53.0" y="510.0"/>
      <point x="35.0" y="528.0"/>
    </contour>
    <contour>
      <point x="135.0" y="650.0" type="curve" smooth="yes"/>
      <point x="135.0" y="672.0"/>
      <point x="153.0" y="690.0"/>
      <point x="175.0" y="690.0" type="curve" smooth="yes"/>
      <point x="325.0" y="690.0" type="line" smooth="yes"/>
      <point x="347.0" y="690.0"/>
      <point x="365.0" y="672.0"/>
      <point x="365.0" y="650.0" type="curve" smooth="yes"/>
      <point x="365.0" y="628.0"/>
      <point x="347.0" y="610.0"/>
      <point x="325.0" y="610.0" type="curve" smooth="yes"/>
      <point x="175.0" y="610.0" type="line" smooth="yes"/>
      <point x="153.0" y="610.0"/>
      <point x="135.0" y="628.0"/>
    </contour>
  </outline>
</glyph>
<glyph name="uni207A" format="2">
  <advance width="400"/>
  <unicode hex="207A"/>
  <outline>
    <contour>
      <point x="135.0" y="350.0" type="curve" smooth="yes"/>
      <point x="135.0" y="372.0"/>
      <point x="153.0" y="390.0"/>
      <point x="175.0" y="390.0" type="curve" smooth="yes"/>
      <point x="225.0" y="390.0" type="line" smooth="yes"/>
      <point x="247.0" y="390.0"/>
      <point x="265.0" y="372.0"/>
      <point x="265.0" y="350.0" type="curve" smooth="yes"/>
      <point x="265.0" y="328.0"/>
      <point x="247.0" y="310.0"/>
      <point x="225.0" y="310.0" type="curve" smooth="yes"/>
      <point x="175.0" y="310.0" type="line" smooth="yes"/>
      <point x="153.0" y="310.0"/>
      <point x="135.0" y="328.0"/>
    </contour>
    <contour>
      <point x="35.0" y="450.0" type="curve" smooth="yes"/>
      <point x="35.0" y="472.0"/>
      <point x="53.0" y="490.0"/>
      <point x="75.0" y="490.0" type="curve" smooth="yes"/>
      <point x="325.0" y="490.0" type="line" smooth="yes"/>
      <point x="347.0" y="490.0"/>
      <point x="365.0" y="472.0"/>
      <point x="365.0" y="450.0" type="curve" smooth="yes"/>
      <point x="365.0" y="428.0"/>
      <point x="347.0" y="410.0"/>
      <point x="325.0" y="410.0" type="curve" smooth="yes"/>
      <point x="75.0" y="410.0" type="line" smooth="yes"/>
      <point x="53.0" y="410.0"/>
      <point x="35.0" y="428.0"/>
    </contour>
    <contour>
      <point x="135.0" y="550.0" type="curve" smooth="yes"/>
      <point x="135.0" y="572.0"/>
      <point x="153.0" y="590.0"/>
      <point x="175.0" y="590.0" type="curve" smooth="yes"/>
      <point x="225.0" y="590.0" type="line" smooth="yes"/>
      <point x="247.0" y="590.0"/>
      <point x="265.0" y="572.0"/>
      <point x="265.0" y="550.0" type="curve" smooth="yes"/>
      <point x="265.0" y="528.0"/>
      <point x="247.0" y="510.0"/>
      <point x="225.0" y="510.0" type="curve" smooth="yes"/>
      <point x="175.0" y="510.0" type="line" smooth="yes"/>
      <point x="153.0" y="510.0"/>
      <point x="135.0" y="528.0"/>
    </contour>
  </outline>
</glyph>
<glyph name="uni207B" format="2">
  <advance width="400"/>
  <unicode hex="207B"/>
  <outline>
    <contour>
      <point x="35.0" y="450.0" type="curve" smooth="yes"/>
      <point x="35.0" y="472.0"/>
      <point x="53.0" y="490.0"/>
      <point x="75.0" y="490.0" type="curve" smooth="yes"/>
      <point x="325.0" y="490.0" type="line" smooth="yes"/>
      <point x="347.0" y="490.0"/>
      <point x="365.0" y="472.0"/>
      <point x="365.0" y="450.0" type="curve" smooth="yes"/>
      <point x="365.0" y="428.0"/>
      <point x="347.0" y="410.0"/>
      <point x="325.0" y="410.0" type="curve" smooth="yes"/>
      <point x="75.0" y="410.0" type="line" smooth="yes"/>
      <point x="53.0" y="410.0"/>
      <point x="35.0" y="428.0"/>
    </contour>
  </outline>
</glyph>
<glyph name="uni207C" format="2">
  <advance width="400"/>
  <unicode hex="207C"/>
  <outline>
    <contour>
      <point x="35.0" y="350.0" type="curve" smooth="yes"/>
      <point x="35.0" y="372.0"/>
      <point x="53.0" y="390.0"/>
      <point x="75.0" y="390.0" type="curve" smooth="yes"/>
      <point x="325.0" y="390.0" type="line" smooth="yes"/>
      <point x="347.0" y="390.0"/>
      <point x="365.0" y="372.0"/>
      <point x="365.0" y="350.0" type="curve" smooth="yes"/>
      <point x="365.0" y="328.0"/>
      <point x="347.0" y="310.0"/>
      <point x="325.0" y="310.0" type="curve" smooth="yes"/>
      <point x="75.0" y="310.0" type="line" smooth="yes"/>
      <point x="53.0" y="310.0"/>
      <point x="35.0" y="328.0"/>
    </contour>
    <contour>
      <point x="35.0" y="550.0" type="curve" smooth="yes"/>
      <point x="35.0" y="572.0"/>
      <point x="53.0" y="590.0"/>
      <point x="75.0" y="590.0" type="curve" smooth="yes"/>
      <point x="325.0" y="590.0" type="line" smooth="yes"/>
      <point x="347.0" y="590.0"/>
      <point x="365.0" y="572.0"/>
      <point x="365.0" y="550.0" type="curve" smooth="yes"/>
      <point x="365.0" y="528.0"/>
      <point x="347.0" y="510.0"/>
      <point x="325.0" y="510.0" type="curve" smooth="yes"/>
      <point x="75.0" y="510.0" type="line" smooth="yes"/>
      <point x="53.0" y="510.0"/>
      <point x="35.0" y="528.0"/>
    </contour>
  </outline>
</glyph>
<glyph name="uni2105" format="2">
  <advance width="800"/>
  <unicode hex="2105"/>
  <outline>
    <contour>
      <point x="435.0" y="50.0" type="curve" smooth="yes"/>
      <point x="435.0" y="72.0"/>
      <point x="453.0" y="90.0"/>
      <point x="475.0" y="90.0" type="curve" smooth="yes"/>
      <point x="525.0" y="90.0" type="line" smooth="yes"/>
      <point x="534.437927657" y="90.0"/>
      <point x="543.1397026" y="86.6873127843"/>
      <point x="550.0" y="81.1672631814" type="curve"/>
      <point x="556.8602974" y="86.6873127843"/>
      <point x="565.562072343" y="90.0"/>
      <point x="575.0" y="90.0" type="curve" smooth="yes"/>
      <point x="625.0" y="90.0" type="line" smooth="yes"/>
      <point x="634.437927657" y="90.0"/>
      <point x="643.1397026" y="86.6873127843"/>
      <point x="650.0" y="81.1672631814" type="curve"/>
      <point x="656.8602974" y="86.6873127843"/>
      <point x="665.562072343" y="90.0"/>
      <point x="675.0" y="90.0" type="curve" smooth="yes"/>
      <point x="725.0" y="90.0" type="line" smooth="yes"/>
      <point x="747.0" y="90.0"/>
      <point x="765.0" y="72.0"/>
      <point x="765.0" y="50.0" type="curve" smooth="yes"/>
      <point x="765.0" y="28.0"/>
      <point x="747.0" y="10.0"/>
      <point x="725.0" y="10.0" type="curve" smooth="yes"/>
      <point x="675.0" y="10.0" type="line" smooth="yes"/>
      <point x="665.562072343" y="10.0"/>
      <point x="656.8602974" y="13.3126872157"/>
      <point x="650.0" y="18.8327368186" type="curve"/>
      <point x="643.1397026" y="13.3126872157"/>
      <point x="634.437927657" y="10.0"/>
      <point x="625.0" y="10.0" type="curve" smooth="yes"/>
      <point x="575.0" y="10.0" type="line" smooth="yes"/>
      <point x="565.562072343" y="10.0"/>
      <point x="556.8602974" y="13.3126872157"/>
      <point x="550.0" y="18.8327368186" type="curve"/>
      <point x="543.1397026" y="13.3126872157"/>
      <point x="534.437927657" y="10.0"/>
      <point x="525.0" y="10.0" type="curve" smooth="yes"/>
      <point x="475.0" y="10.0" type="line" smooth="yes"/>
      <point x="453.0" y="10.0"/>
      <point x="435.0" y="28.0"/>
    </contour>
    <contour>
      <point x="635.0" y="150.0" type="curve" smooth="yes"/>
      <point x="635.0" y="172.0"/>
      <point x="653.0" y="190.0"/>
      <point x="675.0" y="190.0" type="curve" smooth="yes"/>
      <point x="725.0" y="190.0" type="line" smooth="yes"/>
      <point x="747.0" y="190.0"/>
      <point x="765.0" y="172.0"/>
      <point x="765.0" y="150.0" type="curve" smooth="yes"/>
      <point x="765.0" y="128.0"/>
      <point x="747.0" y="110.0"/>
      <point x="725.0" y="110.0" type="curve" smooth="yes"/>
      <point x="675.0" y="110.0" type="line" smooth="yes"/>
      <point x="653.0" y="110.0"/>
      <point x="635.0" y="128.0"/>
    </contour>
    <contour>
      <point x="435.0" y="150.0" type="curve" smooth="yes"/>
      <point x="435.0" y="172.0"/>
      <point x="453.0" y="190.0"/>
      <point x="475.0" y="190.0" type="curve" smooth="yes"/>
      <point x="525.0" y="190.0" type="line" smooth="yes"/>
      <point x="547.0" y="190.0"/>
      <point x="565.0" y="172.0"/>
      <point x="565.0" y="150.0" type="curve" smooth="yes"/>
      <point x="565.0" y="128.0"/>
      <point x="547.0" y="110.0"/>
      <point x="525.0" y="110.0" type="curve" smooth="yes"/>
      <point x="475.0" y="110.0" type="line" smooth="yes"/>
      <point x="453.0" y="110.0"/>
      <point x="435.0" y="128.0"/>
    </contour>
    <contour>
      <point x="435.0" y="250.0" type="curve" smooth="yes"/>
      <point x="435.0" y="272.0"/>
      <point x="453.0" y="290.0"/>
      <point x="475.0" y="290.0" type="curve" smooth="yes"/>
      <point x="525.0" y="290.0" type="line" smooth="yes"/>
      <point x="534.437927657" y="290.0"/>
      <point x="543.1397026" y="286.687312784"/>
      <point x="550.0" y="281.167263181" type="curve"/>
      <point x="556.8602974" y="286.687312784"/>
      <point x="565.562072343" y="290.0"/>
      <point x="575.0" y="290.0" type="curve" smooth="yes"/>
      <point x="625.0" y="290.0" type="line" smooth="yes"/>
      <point x="634.437927657" y="290.0"/>
      <point x="643.1397026" y="286.687312784"/>
      <point x="650.0" y="281.167263181" type="curve"/>
      <point x="656.8602974" y="286.687312784"/>
      <point x="665.562072343" y="290.0"/>
      <point x="675.0" y="290.0" type="curve" smooth="yes"/>
      <point x="725.0" y="290.0" type="line" smooth="yes"/>
      <point x="747.0" y="290.0"/>
      <point x="765.0" y="272.0"/>
      <point x="765.0" y="250.0" type="curve" smooth="yes"/>
      <point x="765.0" y="228.0"/>
      <point x="747.0" y="210.0"/>
      <point x="725.0" y="210.0" type="curve" smooth="yes"/>
      <point x="675.0" y="210.0" type="line" smooth="yes"/>
      <point x="665.562072343" y="210.0"/>
      <point x="656.8602974" y="213.312687216"/>
      <point x="650.0" y="218.832736819" type="curve"/>
      <point x="643.1397026" y="213.312687216"/>
      <point x="634.437927657" y="210.0"/>
      <point x="625.0" y="210.0" type="curve" smooth="yes"/>
      <point x="575.0" y="210.0" type="line" smooth="yes"/>
      <point x="565.562072343" y="210.0"/>
      <point x="556.8602974" y="213.312687216"/>
      <point x="550.0" y="218.832736819" type="curve"/>
      <point x="543.1397026" y="213.312687216"/>
      <point x="534.437927657" y="210.0"/>
      <point x="525.0" y="210.0" type="curve" smooth="yes"/>
      <point x="475.0" y="210.0" type="line" smooth="yes"/>
      <point x="453.0" y="210.0"/>
      <point x="435.0" y="228.0"/>
    </contour>
    <contour>
      <point x="35.0" y="450.0" type="curve" smooth="yes"/>
      <point x="35.0" y="472.0"/>
      <point x="53.0" y="490.0"/>
      <point x="75.0" y="490.0" type="curve" smooth="yes"/>
      <point x="125.0" y="490.0" type="line" smooth="yes"/>
      <point x="134.437927657" y="490.0"/>
      <point x="143.1397026" y="486.687312784"/>
      <point x="150.0" y="481.167263181" type="curve"/>
      <point x="156.8602974" y="486.687312784"/>
      <point x="165.562072343" y="490.0"/>
      <point x="175.0" y="490.0" type="curve" smooth="yes"/>
      <point x="225.0" y="490.0" type="line" smooth="yes"/>
      <point x="234.437927657" y="490.0"/>
      <point x="243.1397026" y="486.687312784"/>
      <point x="250.0" y="481.167263181" type="curve"/>
      <point x="256.8602974" y="486.687312784"/>
      <point x="265.562072343" y="490.0"/>
      <point x="275.0" y="490.0" type="curve" smooth="yes"/>
      <point x="325.0" y="490.0" type="line" smooth="yes"/>
      <point x="347.0" y="490.0"/>
      <point x="365.0" y="472.0"/>
      <point x="365.0" y="450.0" type="curve" smooth="yes"/>
      <point x="365.0" y="428.0"/>
      <point x="347.0" y="410.0"/>
      <point x="325.0" y="410.0" type="curve" smooth="yes"/>
      <point x="275.0" y="410.0" type="line" smooth="yes"/>
      <point x="265.562072343" y="410.0"/>
      <point x="256.8602974" y="413.312687216"/>
      <point x="250.0" y="418.832736819" type="curve"/>
      <point x="243.1397026" y="413.312687216"/>
      <point x="234.437927657" y="410.0"/>
      <point x="225.0" y="410.0" type="curve" smooth="yes"/>
      <point x="175.0" y="410.0" type="line" smooth="yes"/>
      <point x="165.562072343" y="410.0"/>
      <point x="156.8602974" y="413.312687216"/>
      <point x="150.0" y="418.832736819" type="curve"/>
      <point x="143.1397026" y="413.312687216"/>
      <point x="134.437927657" y="410.0"/>
      <point x="125.0" y="410.0" type="curve" smooth="yes"/>
      <point x="75.0" y="410.0" type="line" smooth="yes"/>
      <point x="53.0" y="410.0"/>
      <point x="35.0" y="428.0"/>
    </contour>
    <contour>
      <point x="35.0" y="550.0" type="curve" smooth="yes"/>
      <point x="35.0" y="572.0"/>
      <point x="53.0" y="590.0"/>
      <point x="75.0" y="590.0" type="curve" smooth="yes"/>
      <point x="125.0" y="590.0" type="line" smooth="yes"/>
      <point x="147.0" y="590.0"/>
      <point x="165.0" y="572.0"/>
      <point x="165.0" y="550.0" type="curve" smooth="yes"/>
      <point x="165.0" y="528.0"/>
      <point x="147.0" y="510.0"/>
      <point x="125.0" y="510.0" type="curve" smooth="yes"/>
      <point x="75.0" y="510.0" type="line" smooth="yes"/>
      <point x="53.0" y="510.0"/>
      <point x="35.0" y="528.0"/>
    </contour>
    <contour>
      <point x="35.0" y="650.0" type="curve" smooth="yes"/>
      <point x="35.0" y="672.0"/>
      <point x="53.0" y="690.0"/>
      <point x="75.0" y="690.0" type="curve" smooth="yes"/>
      <point x="125.0" y="690.0" type="line" smooth="yes"/>
      <point x="134.437927657" y="690.0"/>
      <point x="143.1397026" y="686.687312784"/>
      <point x="150.0" y="681.167263181" type="curve"/>
      <point x="156.8602974" y="686.687312784"/>
      <point x="165.562072343" y="690.0"/>
      <point x="175.0" y="690.0" type="curve" smooth="yes"/>
      <point x="225.0" y="690.0" type="line" smooth="yes"/>
      <point x="234.437927657" y="690.0"/>
      <point x="243.1397026" y="686.687312784"/>
      <point x="250.0" y="681.167263181" type="curve"/>
      <point x="256.8602974" y="686.687312784"/>
      <point x="265.562072343" y="690.0"/>
      <point x="275.0" y="690.0" type="curve" smooth="yes"/>
      <point x="325.0" y="690.0" type="line" smooth="yes"/>
      <point x="347.0" y="690.0"/>
      <point x="365.0" y="672.0"/>
      <point x="365.0" y="650.0" type="curve" smooth="yes"/>
      <point x="365.0" y="628.0"/>
      <point x="347.0" y="610.0"/>
      <point x="325.0" y="610.0" type="curve" smooth="yes"/>
      <point x="275.0" y="610.0" type="line" smooth="yes"/>
      <point x="265.562072343" y="610.0"/>
      <point x="256.8602974" y="613.312687216"/>
      <point x="250.0" y="618.832736819" type="curve"/>
      <point x="243.1397026" y="613.312687216"/>
      <point x="234.437927657" y="610.0"/>
      <point x="225.0" y="610.0" type="curve" smooth="yes"/>
      <point x="175.0" y="610.0" type="line" smooth="yes"/>
      <point x="165.562072343" y="610.0"/>
      <point x="156.8602974" y="613.312687216"/>
      <point x="150.0" y="618.832736819" type="curve"/>
      <point x="143.1397026" y="613.312687216"/>
      <point x="134.437927657" y="610.0"/>
      <point x="125.0" y="610.0" type="curve" smooth="yes"/>
      <point x="75.0" y="610.0" type="line" smooth="yes"/>
      <point x="53.0" y="610.0"/>
      <point x="35.0" y="628.0"/>
    </contour>
    <component base="slash" xOffset="100.0"/>
  </outline>
</glyph>
<glyph name="trademark" format="2">
  <advance width="900"/>
  <unicode hex="2122"/>
  <outline>
    <contour>
      <point x="735.0" y="350.0" type="curve" smooth="yes"/>
      <point x="735.0" y="372.0"/>
      <point x="753.0" y="390.0"/>
      <point x="775.0" y="390.0" type="curve" smooth="yes"/>
      <point x="825.0" y="390.0" type="line" smooth="yes"/>
      <point x="847.0" y="390.0"/>
      <point x="865.0" y="372.0"/>
      <point x="865.0" y="350.0" type="curve" smooth="yes"/>
      <point x="865.0" y="328.0"/>
      <point x="847.0" y="310.0"/>
      <point x="825.0" y="310.0" type="curve" smooth="yes"/>
      <point x="775.0" y="310.0" type="line" smooth="yes"/>
      <point x="753.0" y="310.0"/>
      <point x="735.0" y="328.0"/>
    </contour>
    <contour>
      <point x="535.0" y="350.0" type="curve" smooth="yes"/>
      <point x="535.0" y="372.0"/>
      <point x="553.0" y="390.0"/>
      <point x="575.0" y="390.0" type="curve" smooth="yes"/>
      <point x="625.0" y="390.0" type="line" smooth="yes"/>
      <point x="647.0" y="390.0"/>
      <point x="665.0" y="372.0"/>
      <point x="665.0" y="350.0" type="curve" smooth="yes"/>
      <point x="665.0" y="328.0"/>
      <point x="647.0" y="310.0"/>
      <point x="625.0" y="310.0" type="curve" smooth="yes"/>
      <point x="575.0" y="310.0" type="line" smooth="yes"/>
      <point x="553.0" y="310.0"/>
      <point x="535.0" y="328.0"/>
    </contour>
    <contour>
      <point x="335.0" y="350.0" type="curve" smooth="yes"/>
      <point x="335.0" y="372.0"/>
      <point x="353.0" y="390.0"/>
      <point x="375.0" y="390.0" type="curve" smooth="yes"/>
      <point x="425.0" y="390.0" type="line" smooth="yes"/>
      <point x="447.0" y="390.0"/>
      <point x="465.0" y="372.0"/>
      <point x="465.0" y="350.0" type="curve" smooth="yes"/>
      <point x="465.0" y="328.0"/>
      <point x="447.0" y="310.0"/>
      <point x="425.0" y="310.0" type="curve" smooth="yes"/>
      <point x="375.0" y="310.0" type="line" smooth="yes"/>
      <point x="353.0" y="310.0"/>
      <point x="335.0" y="328.0"/>
    </contour>
    <contour>
      <point x="135.0" y="350.0" type="curve" smooth="yes"/>
      <point x="135.0" y="372.0"/>
      <point x="153.0" y="390.0"/>
      <point x="175.0" y="390.0" type="curve" smooth="yes"/>
      <point x="225.0" y="390.0" type="line" smooth="yes"/>
      <point x="247.0" y="390.0"/>
      <point x="265.0" y="372.0"/>
      <point x="265.0" y="350.0" type="curve" smooth="yes"/>
      <point x="265.0" y="328.0"/>
      <point x="247.0" y="310.0"/>
      <point x="225.0" y="310.0" type="curve" smooth="yes"/>
      <point x="175.0" y="310.0" type="line" smooth="yes"/>
      <point x="153.0" y="310.0"/>
      <point x="135.0" y="328.0"/>
    </contour>
    <contour>
      <point x="735.0" y="450.0" type="curve" smooth="yes"/>
      <point x="735.0" y="472.0"/>
      <point x="753.0" y="490.0"/>
      <point x="775.0" y="490.0" type="curve" smooth="yes"/>
      <point x="825.0" y="490.0" type="line" smooth="yes"/>
      <point x="847.0" y="490.0"/>
      <point x="865.0" y="472.0"/>
      <point x="865.0" y="450.0" type="curve" smooth="yes"/>
      <point x="865.0" y="428.0"/>
      <point x="847.0" y="410.0"/>
      <point x="825.0" y="410.0" type="curve" smooth="yes"/>
      <point x="775.0" y="410.0" type="line" smooth="yes"/>
      <point x="753.0" y="410.0"/>
      <point x="735.0" y="428.0"/>
    </contour>
    <contour>
      <point x="535.0" y="450.0" type="curve" smooth="yes"/>
      <point x="535.0" y="472.0"/>
      <point x="553.0" y="490.0"/>
      <point x="575.0" y="490.0" type="curve" smooth="yes"/>
      <point x="625.0" y="490.0" type="line" smooth="yes"/>
      <point x="647.0" y="490.0"/>
      <point x="665.0" y="472.0"/>
      <point x="665.0" y="450.0" type="curve" smooth="yes"/>
      <point x="665.0" y="428.0"/>
      <point x="647.0" y="410.0"/>
      <point x="625.0" y="410.0" type="curve" smooth="yes"/>
      <point x="575.0" y="410.0" type="line" smooth="yes"/>
      <point x="553.0" y="410.0"/>
      <point x="535.0" y="428.0"/>
    </contour>
    <contour>
      <point x="335.0" y="450.0" type="curve" smooth="yes"/>
      <point x="335.0" y="472.0"/>
      <point x="353.0" y="490.0"/>
      <point x="375.0" y="490.0" type="curve" smooth="yes"/>
      <point x="425.0" y="490.0" type="line" smooth="yes"/>
      <point x="447.0" y="490.0"/>
      <point x="465.0" y="472.0"/>
      <point x="465.0" y="450.0" type="curve" smooth="yes"/>
      <point x="465.0" y="428.0"/>
      <point x="447.0" y="410.0"/>
      <point x="425.0" y="410.0" type="curve" smooth="yes"/>
      <point x="375.0" y="410.0" type="line" smooth="yes"/>
      <point x="353.0" y="410.0"/>
      <point x="335.0" y="428.0"/>
    </contour>
    <contour>
      <point x="35.0" y="450.0" type="curve" smooth="yes"/>
      <point x="35.0" y="472.0"/>
      <point x="53.0" y="490.0"/>
      <point x="75.0" y="490.0" type="curve" smooth="yes"/>
      <point x="125.0" y="490.0" type="line" smooth="yes"/>
      <point x="147.0" y="490.0"/>
      <point x="165.0" y="472.0"/>
      <point x="165.0" y="450.0" type="curve" smooth="yes"/>
      <point x="165.0" y="428.0"/>
      <point x="147.0" y="410.0"/>
      <point x="125.0" y="410.0" type="curve" smooth="yes"/>
      <point x="75.0" y="410.0" type="line" smooth="yes"/>
      <point x="53.0" y="410.0"/>
      <point x="35.0" y="428.0"/>
    </contour>
    <contour>
      <point x="735.0" y="550.0" type="curve" smooth="yes"/>
      <point x="735.0" y="572.0"/>
      <point x="753.0" y="590.0"/>
      <point x="775.0" y="590.0" type="curve" smooth="yes"/>
      <point x="825.0" y="590.0" type="line" smooth="yes"/>
      <point x="847.0" y="590.0"/>
      <point x="865.0" y="572.0"/>
      <point x="865.0" y="550.0" type="curve" smooth="yes"/>
      <point x="865.0" y="528.0"/>
      <point x="847.0" y="510.0"/>
      <point x="825.0" y="510.0" type="curve" smooth="yes"/>
      <point x="775.0" y="510.0" type="line" smooth="yes"/>
      <point x="753.0" y="510.0"/>
      <point x="735.0" y="528.0"/>
    </contour>
    <contour>
      <point x="535.0" y="550.0" type="curve" smooth="yes"/>
      <point x="535.0" y="572.0"/>
      <point x="553.0" y="590.0"/>
      <point x="575.0" y="590.0" type="curve" smooth="yes"/>
      <point x="625.0" y="590.0" type="line" smooth="yes"/>
      <point x="647.0" y="590.0"/>
      <point x="665.0" y="572.0"/>
      <point x="665.0" y="550.0" type="curve" smooth="yes"/>
      <point x="665.0" y="528.0"/>
      <point x="647.0" y="510.0"/>
      <point x="625.0" y="510.0" type="curve" smooth="yes"/>
      <point x="575.0" y="510.0" type="line" smooth="yes"/>
      <point x="553.0" y="510.0"/>
      <point x="535.0" y="528.0"/>
    </contour>
    <contour>
      <point x="335.0" y="550.0" type="curve" smooth="yes"/>
      <point x="335.0" y="572.0"/>
      <point x="353.0" y="590.0"/>
      <point x="375.0" y="590.0" type="curve" smooth="yes"/>
      <point x="425.0" y="590.0" type="line" smooth="yes"/>
      <point x="447.0" y="590.0"/>
      <point x="465.0" y="572.0"/>
      <point x="465.0" y="550.0" type="curve" smooth="yes"/>
      <point x="465.0" y="528.0"/>
      <point x="447.0" y="510.0"/>
      <point x="425.0" y="510.0" type="curve" smooth="yes"/>
      <point x="375.0" y="510.0" type="line" smooth="yes"/>
      <point x="353.0" y="510.0"/>
      <point x="335.0" y="528.0"/>
    </contour>
    <contour>
      <point x="35.0" y="550.0" type="curve" smooth="yes"/>
      <point x="35.0" y="572.0"/>
      <point x="53.0" y="590.0"/>
      <point x="75.0" y="590.0" type="curve" smooth="yes"/>
      <point x="125.0" y="590.0" type="line" smooth="yes"/>
      <point x="147.0" y="590.0"/>
      <point x="165.0" y="572.0"/>
      <point x="165.0" y="550.0" type="curve" smooth="yes"/>
      <point x="165.0" y="528.0"/>
      <point x="147.0" y="510.0"/>
      <point x="125.0" y="510.0" type="curve" smooth="yes"/>
      <point x="75.0" y="510.0" type="line" smooth="yes"/>
      <point x="53.0" y="510.0"/>
      <point x="35.0" y="528.0"/>
    </contour>
    <contour>
      <point x="635.0" y="650.0" type="curve" smooth="yes"/>
      <point x="635.0" y="672.0"/>
      <point x="653.0" y="690.0"/>
      <point x="675.0" y="690.0" type="curve" smooth="yes"/>
      <point x="725.0" y="690.0" type="line" smooth="yes"/>
      <point x="747.0" y="690.0"/>
      <point x="765.0" y="672.0"/>
      <point x="765.0" y="650.0" type="curve" smooth="yes"/>
      <point x="765.0" y="628.0"/>
      <point x="747.0" y="610.0"/>
      <point x="725.0" y="610.0" type="curve" smooth="yes"/>
      <point x="675.0" y="610.0" type="line" smooth="yes"/>
      <point x="653.0" y="610.0"/>
      <point x="635.0" y="628.0"/>
    </contour>
    <contour>
      <point x="335.0" y="650.0" type="curve" smooth="yes"/>
      <point x="335.0" y="672.0"/>
      <point x="353.0" y="690.0"/>
      <point x="375.0" y="690.0" type="curve" smooth="yes"/>
      <point x="525.0" y="690.0" type="line" smooth="yes"/>
      <point x="547.0" y="690.0"/>
      <point x="565.0" y="672.0"/>
      <point x="565.0" y="650.0" type="curve" smooth="yes"/>
      <point x="565.0" y="628.0"/>
      <point x="547.0" y="610.0"/>
      <point x="525.0" y="610.0" type="curve" smooth="yes"/>
      <point x="375.0" y="610.0" type="line" smooth="yes"/>
      <point x="353.0" y="610.0"/>
      <point x="335.0" y="628.0"/>
    </contour>
    <contour>
      <point x="35.0" y="650.0" type="curve" smooth="yes"/>
      <point x="35.0" y="672.0"/>
      <point x="53.0" y="690.0"/>
      <point x="75.0" y="690.0" type="curve" smooth="yes"/>
      <point x="225.0" y="690.0" type="line" smooth="yes"/>
      <point x="247.0" y="690.0"/>
      <point x="265.0" y="672.0"/>
      <point x="265.0" y="650.0" type="curve" smooth="yes"/>
      <point x="265.0" y="628.0"/>
      <point x="247.0" y="610.0"/>
      <point x="225.0" y="610.0" type="curve" smooth="yes"/>
      <point x="75.0" y="610.0" type="line" smooth="yes"/>
      <point x="53.0" y="610.0"/>
      <point x="35.0" y="628.0"/>
    </contour>
    <contour>
      <point x="35.0" y="750.0" type="curve" smooth="yes"/>
      <point x="35.0" y="772.0"/>
      <point x="53.0" y="790.0"/>
      <point x="75.0" y="790.0" type="curve" smooth="yes"/>
      <point x="125.0" y="790.0" type="line" smooth="yes"/>
      <point x="147.0" y="790.0"/>
      <point x="165.0" y="772.0"/>
      <point x="165.0" y="750.0" type="curve" smooth="yes"/>
      <point x="165.0" y="728.0"/>
      <point x="147.0" y="710.0"/>
      <point x="125.0" y="710.0" type="curve" smooth="yes"/>
      <point x="75.0" y="710.0" type="line" smooth="yes"/>
      <point x="53.0" y="710.0"/>
      <point x="35.0" y="728.0"/>
    </contour>
  </outline>
</glyph>
<glyph name="estimated" format="2">
  <advance width="892"/>
  <unicode hex="212E"/>
  <outline>
    <contour>
      <point x="190.0" y="360.0" type="line"/>
      <point x="700.0" y="360.0" type="line"/>
      <point x="700.0" y="580.0" type="line"/>
      <point x="640.0" y="650.0"/>
      <point x="550.0" y="690.0"/>
      <point x="450.0" y="690.0" type="curve" smooth="yes"/>
      <point x="350.0" y="690.0"/>
      <point x="250.0" y="650.0"/>
      <point x="190.0" y="580.0" type="curve"/>
    </contour>
    <contour>
      <point x="850.0" y="340.0" type="curve"/>
      <point x="190.0" y="340.0" type="line"/>
      <point x="190.0" y="120.0" type="line"/>
      <point x="250.0" y="50.0"/>
      <point x="350.0" y="10.0"/>
      <point x="450.0" y="10.0" type="curve" smooth="yes"/>
      <point x="550.0" y="10.0"/>
      <point x="650.0" y="60.0"/>
      <point x="710.0" y="130.0" type="curve"/>
      <point x="770.0" y="130.0" type="line"/>
      <point x="700.0" y="40.0"/>
      <point x="580.0" y="-20.0"/>
      <point x="450.0" y="-20.0" type="curve" smooth="yes"/>
      <point x="230.0" y="-20.0"/>
      <point x="40.0" y="150.0"/>
      <point x="40.0" y="350.0" type="curve" smooth="yes"/>
      <point x="40.0" y="550.0"/>
      <point x="230.0" y="720.0"/>
      <point x="450.0" y="720.0" type="curve" smooth="yes"/>
      <point x="680.0" y="720.0"/>
      <point x="850.0" y="550.0"/>
    </contour>
  </outline>
</glyph>
<glyph name="minus" format="2">
  <advance width="600"/>
  <unicode hex="2212"/>
  <outline>
    <contour>
      <point x="35.0" y="350.0" type="curve" smooth="yes"/>
      <point x="35.0" y="372.0"/>
      <point x="53.0" y="390.0"/>
      <point x="75.0" y="390.0" type="curve" smooth="yes"/>
      <point x="525.0" y="390.0" type="line" smooth="yes"/>
      <point x="547.0" y="390.0"/>
      <point x="565.0" y="372.0"/>
      <point x="565.0" y="350.0" type="curve" smooth="yes"/>
      <point x="565.0" y="328.0"/>
      <point x="547.0" y="310.0"/>
      <point x="525.0" y="310.0" type="curve" smooth="yes"/>
      <point x="75.0" y="310.0" type="line" smooth="yes"/>
      <point x="53.0" y="310.0"/>
      <point x="35.0" y="328.0"/>
    </contour>
  </outline>
</glyph>
<glyph name="blackSmallSquare" format="2">
  <advance width="400"/>
  <unicode hex="25AA"/>
  <outline>
    <contour>
      <point x="35.0" y="250.0" type="curve" smooth="yes"/>
      <point x="35.0" y="272.0"/>
      <point x="53.0" y="290.0"/>
      <point x="75.0" y="290.0" type="curve" smooth="yes"/>
      <point x="325.0" y="290.0" type="line" smooth="yes"/>
      <point x="347.0" y="290.0"/>
      <point x="365.0" y="272.0"/>
      <point x="365.0" y="250.0" type="curve" smooth="yes"/>
      <point x="365.0" y="228.0"/>
      <point x="347.0" y="210.0"/>
      <point x="325.0" y="210.0" type="curve" smooth="yes"/>
      <point x="75.0" y="210.0" type="line" smooth="yes"/>
      <point x="53.0" y="210.0"/>
      <point x="35.0" y="228.0"/>
    </contour>
    <contour>
      <point x="35.0" y="350.0" type="curve" smooth="yes"/>
      <point x="35.0" y="372.0"/>
      <point x="53.0" y="390.0"/>
      <point x="75.0" y="390.0" type="curve" smooth="yes"/>
      <point x="325.0" y="390.0" type="line" smooth="yes"/>
      <point x="347.0" y="390.0"/>
      <point x="365.0" y="372.0"/>
      <point x="365.0" y="350.0" type="curve" smooth="yes"/>
      <point x="365.0" y="328.0"/>
      <point x="347.0" y="310.0"/>
      <point x="325.0" y="310.0" type="curve" smooth="yes"/>
      <point x="75.0" y="310.0" type="line" smooth="yes"/>
      <point x="53.0" y="310.0"/>
      <point x="35.0" y="328.0"/>
    </contour>
    <contour>
      <point x="35.0" y="450.0" type="curve" smooth="yes"/>
      <point x="35.0" y="472.0"/>
      <point x="53.0" y="490.0"/>
      <point x="75.0" y="490.0" type="curve" smooth="yes"/>
      <point x="325.0" y="490.0" type="line" smooth="yes"/>
      <point x="347.0" y="490.0"/>
      <point x="365.0" y="472.0"/>
      <point x="365.0" y="450.0" type="curve" smooth="yes"/>
      <point x="365.0" y="428.0"/>
      <point x="347.0" y="410.0"/>
      <point x="325.0" y="410.0" type="curve" smooth="yes"/>
      <point x="75.0" y="410.0" type="line" smooth="yes"/>
      <point x="53.0" y="410.0"/>
      <point x="35.0" y="428.0"/>
    </contour>
  </outline>
</glyph>
<glyph name="uni2D67" format="2">
  <advance width="600"/>
  <unicode hex="2D67"/>
  <outline>
    <contour>
      <point x="335.0" y="350.0" type="curve" smooth="yes"/>
      <point x="335.0" y="372.0"/>
      <point x="353.0" y="390.0"/>
      <point x="375.0" y="390.0" type="curve" smooth="yes"/>
      <point x="525.0" y="390.0" type="line" smooth="yes"/>
      <point x="547.0" y="390.0"/>
      <point x="565.0" y="372.0"/>
      <point x="565.0" y="350.0" type="curve" smooth="yes"/>
      <point x="565.0" y="328.0"/>
      <point x="547.0" y="310.0"/>
      <point x="525.0" y="310.0" type="curve" smooth="yes"/>
      <point x="375.0" y="310.0" type="line" smooth="yes"/>
      <point x="353.0" y="310.0"/>
      <point x="335.0" y="328.0"/>
    </contour>
    <contour>
      <point x="35.0" y="350.0" type="curve" smooth="yes"/>
      <point x="35.0" y="372.0"/>
      <point x="53.0" y="390.0"/>
      <point x="75.0" y="390.0" type="curve" smooth="yes"/>
      <point x="225.0" y="390.0" type="line" smooth="yes"/>
      <point x="247.0" y="390.0"/>
      <point x="265.0" y="372.0"/>
      <point x="265.0" y="350.0" type="curve" smooth="yes"/>
      <point x="265.0" y="328.0"/>
      <point x="247.0" y="310.0"/>
      <point x="225.0" y="310.0" type="curve" smooth="yes"/>
      <point x="75.0" y="310.0" type="line" smooth="yes"/>
      <point x="53.0" y="310.0"/>
      <point x="35.0" y="328.0"/>
    </contour>
  </outline>
</glyph>
<glyph name="men_xeh-ar" format="2">
  <advance width="1200"/>
  <unicode hex="FB17"/>
  <outline>
    <contour>
      <point x="635.0" y="550.0" type="curve" smooth="yes"/>
      <point x="635.0" y="572.0"/>
      <point x="653.0" y="590.0"/>
      <point x="675.0" y="590.0" type="curve" smooth="yes"/>
      <point x="725.0" y="590.0" type="line" smooth="yes"/>
      <point x="747.0" y="590.0"/>
      <point x="765.0" y="572.0"/>
      <point x="765.0" y="550.0" type="curve" smooth="yes"/>
      <point x="765.0" y="528.0"/>
      <point x="747.0" y="510.0"/>
      <point x="725.0" y="510.0" type="curve" smooth="yes"/>
      <point x="675.0" y="510.0" type="line" smooth="yes"/>
      <point x="653.0" y="510.0"/>
      <point x="635.0" y="528.0"/>
    </contour>
    <contour>
      <point x="635.0" y="450.0" type="curve" smooth="yes"/>
      <point x="635.0" y="472.0"/>
      <point x="653.0" y="490.0"/>
      <point x="675.0" y="490.0" type="curve" smooth="yes"/>
      <point x="825.0" y="490.0" type="line" smooth="yes"/>
      <point x="847.0" y="490.0"/>
      <point x="865.0" y="472.0"/>
      <point x="865.0" y="450.0" type="curve" smooth="yes"/>
      <point x="865.0" y="428.0"/>
      <point x="847.0" y="410.0"/>
      <point x="825.0" y="410.0" type="curve" smooth="yes"/>
      <point x="675.0" y="410.0" type="line" smooth="yes"/>
      <point x="653.0" y="410.0"/>
      <point x="635.0" y="428.0"/>
    </contour>
    <contour>
      <point x="1035.0" y="450.0" type="curve" smooth="yes"/>
      <point x="1035.0" y="472.0"/>
      <point x="1053.0" y="490.0"/>
      <point x="1075.0" y="490.0" type="curve" smooth="yes"/>
      <point x="1125.0" y="490.0" type="line" smooth="yes"/>
      <point x="1147.0" y="490.0"/>
      <point x="1165.0" y="472.0"/>
      <point x="1165.0" y="450.0" type="curve" smooth="yes"/>
      <point x="1165.0" y="428.0"/>
      <point x="1147.0" y="410.0"/>
      <point x="1125.0" y="410.0" type="curve" smooth="yes"/>
      <point x="1075.0" y="410.0" type="line" smooth="yes"/>
      <point x="1053.0" y="410.0"/>
      <point x="1035.0" y="428.0"/>
    </contour>
    <contour>
      <point x="635.0" y="350.0" type="curve" smooth="yes"/>
      <point x="635.0" y="372.0"/>
      <point x="653.0" y="390.0"/>
      <point x="675.0" y="390.0" type="curve" smooth="yes"/>
      <point x="725.0" y="390.0" type="line" smooth="yes"/>
      <point x="747.0" y="390.0"/>
      <point x="765.0" y="372.0"/>
      <point x="765.0" y="350.0" type="curve" smooth="yes"/>
      <point x="765.0" y="328.0"/>
      <point x="747.0" y="310.0"/>
      <point x="725.0" y="310.0" type="curve" smooth="yes"/>
      <point x="675.0" y="310.0" type="line" smooth="yes"/>
      <point x="653.0" y="310.0"/>
      <point x="635.0" y="328.0"/>
    </contour>
    <contour>
      <point x="835.0" y="350.0" type="curve" smooth="yes"/>
      <point x="835.0" y="372.0"/>
      <point x="853.0" y="390.0"/>
      <point x="875.0" y="390.0" type="curve" smooth="yes"/>
      <point x="925.0" y="390.0" type="line" smooth="yes"/>
      <point x="947.0" y="390.0"/>
      <point x="965.0" y="372.0"/>
      <point x="965.0" y="350.0" type="curve" smooth="yes"/>
      <point x="965.0" y="328.0"/>
      <point x="947.0" y="310.0"/>
      <point x="925.0" y="310.0" type="curve" smooth="yes"/>
      <point x="875.0" y="310.0" type="line" smooth="yes"/>
      <point x="853.0" y="310.0"/>
      <point x="835.0" y="328.0"/>
    </contour>
    <contour>
      <point x="1035.0" y="350.0" type="curve" smooth="yes"/>
      <point x="1035.0" y="372.0"/>
      <point x="1053.0" y="390.0"/>
      <point x="1075.0" y="390.0" type="curve" smooth="yes"/>
      <point x="1125.0" y="390.0" type="line" smooth="yes"/>
      <point x="1147.0" y="390.0"/>
      <point x="1165.0" y="372.0"/>
      <point x="1165.0" y="350.0" type="curve" smooth="yes"/>
      <point x="1165.0" y="328.0"/>
      <point x="1147.0" y="310.0"/>
      <point x="1125.0" y="310.0" type="curve" smooth="yes"/>
      <point x="1075.0" y="310.0" type="line" smooth="yes"/>
      <point x="1053.0" y="310.0"/>
      <point x="1035.0" y="328.0"/>
    </contour>
    <contour>
      <point x="635.0" y="250.0" type="curve" smooth="yes"/>
      <point x="635.0" y="272.0"/>
      <point x="653.0" y="290.0"/>
      <point x="675.0" y="290.0" type="curve" smooth="yes"/>
      <point x="725.0" y="290.0" type="line" smooth="yes"/>
      <point x="747.0" y="290.0"/>
      <point x="765.0" y="272.0"/>
      <point x="765.0" y="250.0" type="curve" smooth="yes"/>
      <point x="765.0" y="228.0"/>
      <point x="747.0" y="210.0"/>
      <point x="725.0" y="210.0" type="curve" smooth="yes"/>
      <point x="675.0" y="210.0" type="line" smooth="yes"/>
      <point x="653.0" y="210.0"/>
      <point x="635.0" y="228.0"/>
    </contour>
    <contour>
      <point x="835.0" y="250.0" type="curve" smooth="yes"/>
      <point x="835.0" y="272.0"/>
      <point x="853.0" y="290.0"/>
      <point x="875.0" y="290.0" type="curve" smooth="yes"/>
      <point x="925.0" y="290.0" type="line" smooth="yes"/>
      <point x="947.0" y="290.0"/>
      <point x="965.0" y="272.0"/>
      <point x="965.0" y="250.0" type="curve" smooth="yes"/>
      <point x="965.0" y="228.0"/>
      <point x="947.0" y="210.0"/>
      <point x="925.0" y="210.0" type="curve" smooth="yes"/>
      <point x="875.0" y="210.0" type="line" smooth="yes"/>
      <point x="853.0" y="210.0"/>
      <point x="835.0" y="228.0"/>
    </contour>
    <contour>
      <point x="1035.0" y="250.0" type="curve" smooth="yes"/>
      <point x="1035.0" y="272.0"/>
      <point x="1053.0" y="290.0"/>
      <point x="1075.0" y="290.0" type="curve" smooth="yes"/>
      <point x="1125.0" y="290.0" type="line" smooth="yes"/>
      <point x="1147.0" y="290.0"/>
      <point x="1165.0" y="272.0"/>
      <point x="1165.0" y="250.0" type="curve" smooth="yes"/>
      <point x="1165.0" y="228.0"/>
      <point x="1147.0" y="210.0"/>
      <point x="1125.0" y="210.0" type="curve" smooth="yes"/>
      <point x="1075.0" y="210.0" type="line" smooth="yes"/>
      <point x="1053.0" y="210.0"/>
      <point x="1035.0" y="228.0"/>
    </contour>
    <contour>
      <point x="635.0" y="150.0" type="curve" smooth="yes"/>
      <point x="635.0" y="172.0"/>
      <point x="653.0" y="190.0"/>
      <point x="675.0" y="190.0" type="curve" smooth="yes"/>
      <point x="725.0" y="190.0" type="line" smooth="yes"/>
      <point x="747.0" y="190.0"/>
      <point x="765.0" y="172.0"/>
      <point x="765.0" y="150.0" type="curve" smooth="yes"/>
      <point x="765.0" y="128.0"/>
      <point x="747.0" y="110.0"/>
      <point x="725.0" y="110.0" type="curve" smooth="yes"/>
      <point x="675.0" y="110.0" type="line" smooth="yes"/>
      <point x="653.0" y="110.0"/>
      <point x="635.0" y="128.0"/>
    </contour>
    <contour>
      <point x="835.0" y="150.0" type="curve" smooth="yes"/>
      <point x="835.0" y="172.0"/>
      <point x="853.0" y="190.0"/>
      <point x="875.0" y="190.0" type="curve" smooth="yes"/>
      <point x="925.0" y="190.0" type="line" smooth="yes"/>
      <point x="947.0" y="190.0"/>
      <point x="965.0" y="172.0"/>
      <point x="965.0" y="150.0" type="curve" smooth="yes"/>
      <point x="965.0" y="128.0"/>
      <point x="947.0" y="110.0"/>
      <point x="925.0" y="110.0" type="curve" smooth="yes"/>
      <point x="875.0" y="110.0" type="line" smooth="yes"/>
      <point x="853.0" y="110.0"/>
      <point x="835.0" y="128.0"/>
    </contour>
    <contour>
      <point x="1035.0" y="150.0" type="curve" smooth="yes"/>
      <point x="1035.0" y="172.0"/>
      <point x="1053.0" y="190.0"/>
      <point x="1075.0" y="190.0" type="curve" smooth="yes"/>
      <point x="1125.0" y="190.0" type="line" smooth="yes"/>
      <point x="1147.0" y="190.0"/>
      <point x="1165.0" y="172.0"/>
      <point x="1165.0" y="150.0" type="curve" smooth="yes"/>
      <point x="1165.0" y="128.0"/>
      <point x="1147.0" y="110.0"/>
      <point x="1125.0" y="110.0" type="curve" smooth="yes"/>
      <point x="1075.0" y="110.0" type="line" smooth="yes"/>
      <point x="1053.0" y="110.0"/>
      <point x="1035.0" y="128.0"/>
    </contour>
    <contour>
      <point x="635.0" y="50.0" type="curve" smooth="yes"/>
      <point x="635.0" y="72.0"/>
      <point x="653.0" y="90.0"/>
      <point x="675.0" y="90.0" type="curve" smooth="yes"/>
      <point x="725.0" y="90.0" type="line" smooth="yes"/>
      <point x="747.0" y="90.0"/>
      <point x="765.0" y="72.0"/>
      <point x="765.0" y="50.0" type="curve" smooth="yes"/>
      <point x="765.0" y="28.0"/>
      <point x="747.0" y="10.0"/>
      <point x="725.0" y="10.0" type="curve" smooth="yes"/>
      <point x="675.0" y="10.0" type="line" smooth="yes"/>
      <point x="653.0" y="10.0"/>
      <point x="635.0" y="28.0"/>
    </contour>
    <contour>
      <point x="935.0" y="50.0" type="curve" smooth="yes"/>
      <point x="935.0" y="72.0"/>
      <point x="953.0" y="90.0"/>
      <point x="975.0" y="90.0" type="curve" smooth="yes"/>
      <point x="1125.0" y="90.0" type="line" smooth="yes"/>
      <point x="1147.0" y="90.0"/>
      <point x="1165.0" y="72.0"/>
      <point x="1165.0" y="50.0" type="curve" smooth="yes"/>
      <point x="1165.0" y="28.0"/>
      <point x="1147.0" y="10.0"/>
      <point x="1125.0" y="10.0" type="curve" smooth="yes"/>
      <point x="975.0" y="10.0" type="line" smooth="yes"/>
      <point x="953.0" y="10.0"/>
      <point x="935.0" y="28.0"/>
    </contour>
    <contour>
      <point x="635.0" y="-50.0" type="curve" smooth="yes"/>
      <point x="635.0" y="-28.0"/>
      <point x="653.0" y="-10.0"/>
      <point x="675.0" y="-10.0" type="curve" smooth="yes"/>
      <point x="725.0" y="-10.0" type="line" smooth="yes"/>
      <point x="747.0" y="-10.0"/>
      <point x="765.0" y="-28.0"/>
      <point x="765.0" y="-50.0" type="curve" smooth="yes"/>
      <point x="765.0" y="-72.0"/>
      <point x="747.0" y="-90.0"/>
      <point x="725.0" y="-90.0" type="curve" smooth="yes"/>
      <point x="675.0" y="-90.0" type="line" smooth="yes"/>
      <point x="653.0" y="-90.0"/>
      <point x="635.0" y="-72.0"/>
    </contour>
    <contour>
      <point x="635.0" y="-150.0" type="curve" smooth="yes"/>
      <point x="635.0" y="-128.0"/>
      <point x="653.0" y="-110.0"/>
      <point x="675.0" y="-110.0" type="curve" smooth="yes"/>
      <point x="725.0" y="-110.0" type="line" smooth="yes"/>
      <point x="747.0" y="-110.0"/>
      <point x="765.0" y="-128.0"/>
      <point x="765.0" y="-150.0" type="curve" smooth="yes"/>
      <point x="765.0" y="-172.0"/>
      <point x="747.0" y="-190.0"/>
      <point x="725.0" y="-190.0" type="curve" smooth="yes"/>
      <point x="675.0" y="-190.0" type="line" smooth="yes"/>
      <point x="653.0" y="-190.0"/>
      <point x="635.0" y="-172.0"/>
    </contour>
    <contour>
      <point x="435.0" y="50.0" type="curve" smooth="yes"/>
      <point x="435.0" y="72.0"/>
      <point x="453.0" y="90.0"/>
      <point x="475.0" y="90.0" type="curve" smooth="yes"/>
      <point x="525.0" y="90.0" type="line" smooth="yes"/>
      <point x="547.0" y="90.0"/>
      <point x="565.0" y="72.0"/>
      <point x="565.0" y="50.0" type="curve" smooth="yes"/>
      <point x="565.0" y="28.0"/>
      <point x="547.0" y="10.0"/>
      <point x="525.0" y="10.0" type="curve" smooth="yes"/>
      <point x="475.0" y="10.0" type="line" smooth="yes"/>
      <point x="453.0" y="10.0"/>
      <point x="435.0" y="28.0"/>
    </contour>
    <contour>
      <point x="135.0" y="50.0" type="curve" smooth="yes"/>
      <point x="135.0" y="72.0"/>
      <point x="153.0" y="90.0"/>
      <point x="175.0" y="90.0" type="curve" smooth="yes"/>
      <point x="325.0" y="90.0" type="line" smooth="yes"/>
      <point x="347.0" y="90.0"/>
      <point x="365.0" y="72.0"/>
      <point x="365.0" y="50.0" type="curve" smooth="yes"/>
      <point x="365.0" y="28.0"/>
      <point x="347.0" y="10.0"/>
      <point x="325.0" y="10.0" type="curve" smooth="yes"/>
      <point x="175.0" y="10.0" type="line" smooth="yes"/>
      <point x="153.0" y="10.0"/>
      <point x="135.0" y="28.0"/>
    </contour>
    <contour>
      <point x="335.0" y="150.0" type="curve" smooth="yes"/>
      <point x="335.0" y="172.0"/>
      <point x="353.0" y="190.0"/>
      <point x="375.0" y="190.0" type="curve" smooth="yes"/>
      <point x="525.0" y="190.0" type="line" smooth="yes"/>
      <point x="547.0" y="190.0"/>
      <point x="565.0" y="172.0"/>
      <point x="565.0" y="150.0" type="curve" smooth="yes"/>
      <point x="565.0" y="128.0"/>
      <point x="547.0" y="110.0"/>
      <point x="525.0" y="110.0" type="curve" smooth="yes"/>
      <point x="375.0" y="110.0" type="line" smooth="yes"/>
      <point x="353.0" y="110.0"/>
      <point x="335.0" y="128.0"/>
    </contour>
    <contour>
      <point x="35.0" y="150.0" type="curve" smooth="yes"/>
      <point x="35.0" y="172.0"/>
      <point x="53.0" y="190.0"/>
      <point x="75.0" y="190.0" type="curve" smooth="yes"/>
      <point x="125.0" y="190.0" type="line" smooth="yes"/>
      <point x="147.0" y="190.0"/>
      <point x="165.0" y="172.0"/>
      <point x="165.0" y="150.0" type="curve" smooth="yes"/>
      <point x="165.0" y="128.0"/>
      <point x="147.0" y="110.0"/>
      <point x="125.0" y="110.0" type="curve" smooth="yes"/>
      <point x="75.0" y="110.0" type="line" smooth="yes"/>
      <point x="53.0" y="110.0"/>
      <point x="35.0" y="128.0"/>
    </contour>
    <contour>
      <point x="435.0" y="250.0" type="curve" smooth="yes"/>
      <point x="435.0" y="272.0"/>
      <point x="453.0" y="290.0"/>
      <point x="475.0" y="290.0" type="curve" smooth="yes"/>
      <point x="525.0" y="290.0" type="line" smooth="yes"/>
      <point x="547.0" y="290.0"/>
      <point x="565.0" y="272.0"/>
      <point x="565.0" y="250.0" type="curve" smooth="yes"/>
      <point x="565.0" y="228.0"/>
      <point x="547.0" y="210.0"/>
      <point x="525.0" y="210.0" type="curve" smooth="yes"/>
      <point x="475.0" y="210.0" type="line" smooth="yes"/>
      <point x="453.0" y="210.0"/>
      <point x="435.0" y="228.0"/>
    </contour>
    <contour>
      <point x="35.0" y="250.0" type="curve" smooth="yes"/>
      <point x="35.0" y="272.0"/>
      <point x="53.0" y="290.0"/>
      <point x="75.0" y="290.0" type="curve" smooth="yes"/>
      <point x="125.0" y="290.0" type="line" smooth="yes"/>
      <point x="147.0" y="290.0"/>
      <point x="165.0" y="272.0"/>
      <point x="165.0" y="250.0" type="curve" smooth="yes"/>
      <point x="165.0" y="228.0"/>
      <point x="147.0" y="210.0"/>
      <point x="125.0" y="210.0" type="curve" smooth="yes"/>
      <point x="75.0" y="210.0" type="line" smooth="yes"/>
      <point x="53.0" y="210.0"/>
      <point x="35.0" y="228.0"/>
    </contour>
    <contour>
      <point x="435.0" y="350.0" type="curve" smooth="yes"/>
      <point x="435.0" y="372.0"/>
      <point x="453.0" y="390.0"/>
      <point x="475.0" y="390.0" type="curve" smooth="yes"/>
      <point x="525.0" y="390.0" type="line" smooth="yes"/>
      <point x="547.0" y="390.0"/>
      <point x="565.0" y="372.0"/>
      <point x="565.0" y="350.0" type="curve" smooth="yes"/>
      <point x="565.0" y="328.0"/>
      <point x="547.0" y="310.0"/>
      <point x="525.0" y="310.0" type="curve" smooth="yes"/>
      <point x="475.0" y="310.0" type="line" smooth="yes"/>
      <point x="453.0" y="310.0"/>
      <point x="435.0" y="328.0"/>
    </contour>
    <contour>
      <point x="35.0" y="350.0" type="curve" smooth="yes"/>
      <point x="35.0" y="372.0"/>
      <point x="53.0" y="390.0"/>
      <point x="75.0" y="390.0" type="curve" smooth="yes"/>
      <point x="125.0" y="390.0" type="line" smooth="yes"/>
      <point x="147.0" y="390.0"/>
      <point x="165.0" y="372.0"/>
      <point x="165.0" y="350.0" type="curve" smooth="yes"/>
      <point x="165.0" y="328.0"/>
      <point x="147.0" y="310.0"/>
      <point x="125.0" y="310.0" type="curve" smooth="yes"/>
      <point x="75.0" y="310.0" type="line" smooth="yes"/>
      <point x="53.0" y="310.0"/>
      <point x="35.0" y="328.0"/>
    </contour>
    <contour>
      <point x="435.0" y="450.0" type="curve" smooth="yes"/>
      <point x="435.0" y="472.0"/>
      <point x="453.0" y="490.0"/>
      <point x="475.0" y="490.0" type="curve" smooth="yes"/>
      <point x="525.0" y="490.0" type="line" smooth="yes"/>
      <point x="547.0" y="490.0"/>
      <point x="565.0" y="472.0"/>
      <point x="565.0" y="450.0" type="curve" smooth="yes"/>
      <point x="565.0" y="428.0"/>
      <point x="547.0" y="410.0"/>
      <point x="525.0" y="410.0" type="curve" smooth="yes"/>
      <point x="475.0" y="410.0" type="line" smooth="yes"/>
      <point x="453.0" y="410.0"/>
      <point x="435.0" y="428.0"/>
    </contour>
    <contour>
      <point x="35.0" y="450.0" type="curve" smooth="yes"/>
      <point x="35.0" y="472.0"/>
      <point x="53.0" y="490.0"/>
      <point x="75.0" y="490.0" type="curve" smooth="yes"/>
      <point x="125.0" y="490.0" type="line" smooth="yes"/>
      <point x="147.0" y="490.0"/>
      <point x="165.0" y="472.0"/>
      <point x="165.0" y="450.0" type="curve" smooth="yes"/>
      <point x="165.0" y="428.0"/>
      <point x="147.0" y="410.0"/>
      <point x="125.0" y="410.0" type="curve" smooth="yes"/>
      <point x="75.0" y="410.0" type="line" smooth="yes"/>
      <point x="53.0" y="410.0"/>
      <point x="35.0" y="428.0"/>
    </contour>
    <contour>
      <point x="435.0" y="550.0" type="curve" smooth="yes"/>
      <point x="435.0" y="572.0"/>
      <point x="453.0" y="590.0"/>
      <point x="475.0" y="590.0" type="curve" smooth="yes"/>
      <point x="525.0" y="590.0" type="line" smooth="yes"/>
      <point x="547.0" y="590.0"/>
      <point x="565.0" y="572.0"/>
      <point x="565.0" y="550.0" type="curve" smooth="yes"/>
      <point x="565.0" y="528.0"/>
      <point x="547.0" y="510.0"/>
      <point x="525.0" y="510.0" type="curve" smooth="yes"/>
      <point x="475.0" y="510.0" type="line" smooth="yes"/>
      <point x="453.0" y="510.0"/>
      <point x="435.0" y="528.0"/>
    </contour>
    <contour>
      <point x="435.0" y="650.0" type="curve" smooth="yes"/>
      <point x="435.0" y="672.0"/>
      <point x="453.0" y="690.0"/>
      <point x="475.0" y="690.0" type="curve" smooth="yes"/>
      <point x="725.0" y="690.0" type="line" smooth="yes"/>
      <point x="747.0" y="690.0"/>
      <point x="765.0" y="672.0"/>
      <point x="765.0" y="650.0" type="curve" smooth="yes"/>
      <point x="765.0" y="628.0"/>
      <point x="747.0" y="610.0"/>
      <point x="725.0" y="610.0" type="curve" smooth="yes"/>
      <point x="475.0" y="610.0" type="line" smooth="yes"/>
      <point x="453.0" y="610.0"/>
      <point x="435.0" y="628.0"/>
    </contour>
  </outline>
</glyph>
<glyph name="florin.sc" format="2">
  <advance width="800"/>
  <outline>
    <contour>
      <point x="35.0" y="-150.0" type="curve" smooth="yes"/>
      <point x="35.0" y="-128.0"/>
      <point x="53.0" y="-110.0"/>
      <point x="75.0" y="-110.0" type="curve" smooth="yes"/>
      <point x="225.0" y="-110.0" type="line" smooth="yes"/>
      <point x="247.0" y="-110.0"/>
      <point x="265.0" y="-128.0"/>
      <point x="265.0" y="-150.0" type="curve" smooth="yes"/>
      <point x="265.0" y="-172.0"/>
      <point x="247.0" y="-190.0"/>
      <point x="225.0" y="-190.0" type="curve" smooth="yes"/>
      <point x="75.0" y="-190.0" type="line" smooth="yes"/>
      <point x="53.0" y="-190.0"/>
      <point x="35.0" y="-172.0"/>
    </contour>
    <contour>
      <point x="235.0" y="-50.0" type="curve" smooth="yes"/>
      <point x="235.0" y="-28.0"/>
      <point x="253.0" y="-10.0"/>
      <point x="275.0" y="-10.0" type="curve" smooth="yes"/>
      <point x="325.0" y="-10.0" type="line" smooth="yes"/>
      <point x="347.0" y="-10.0"/>
      <point x="365.0" y="-28.0"/>
      <point x="365.0" y="-50.0" type="curve" smooth="yes"/>
      <point x="365.0" y="-72.0"/>
      <point x="347.0" y="-90.0"/>
      <point x="325.0" y="-90.0" type="curve" smooth="yes"/>
      <point x="275.0" y="-90.0" type="line" smooth="yes"/>
      <point x="253.0" y="-90.0"/>
      <point x="235.0" y="-72.0"/>
    </contour>
    <contour>
      <point x="235.0" y="50.0" type="curve" smooth="yes"/>
      <point x="235.0" y="72.0"/>
      <point x="253.0" y="90.0"/>
      <point x="275.0" y="90.0" type="curve" smooth="yes"/>
      <point x="325.0" y="90.0" type="line" smooth="yes"/>
      <point x="347.0" y="90.0"/>
      <point x="365.0" y="72.0"/>
      <point x="365.0" y="50.0" type="curve" smooth="yes"/>
      <point x="365.0" y="28.0"/>
      <point x="347.0" y="10.0"/>
      <point x="325.0" y="10.0" type="curve" smooth="yes"/>
      <point x="275.0" y="10.0" type="line" smooth="yes"/>
      <point x="253.0" y="10.0"/>
      <point x="235.0" y="28.0"/>
    </contour>
    <contour>
      <point x="235.0" y="150.0" type="curve" smooth="yes"/>
      <point x="235.0" y="172.0"/>
      <point x="253.0" y="190.0"/>
      <point x="275.0" y="190.0" type="curve" smooth="yes"/>
      <point x="325.0" y="190.0" type="line" smooth="yes"/>
      <point x="347.0" y="190.0"/>
      <point x="365.0" y="172.0"/>
      <point x="365.0" y="150.0" type="curve" smooth="yes"/>
      <point x="365.0" y="128.0"/>
      <point x="347.0" y="110.0"/>
      <point x="325.0" y="110.0" type="curve" smooth="yes"/>
      <point x="275.0" y="110.0" type="line" smooth="yes"/>
      <point x="253.0" y="110.0"/>
      <point x="235.0" y="128.0"/>
    </contour>
    <contour>
      <point x="235.0" y="250.0" type="curve" smooth="yes"/>
      <point x="235.0" y="272.0"/>
      <point x="253.0" y="290.0"/>
      <point x="275.0" y="290.0" type="curve" smooth="yes"/>
      <point x="625.0" y="290.0" type="line" smooth="yes"/>
      <point x="647.0" y="290.0"/>
      <point x="665.0" y="272.0"/>
      <point x="665.0" y="250.0" type="curve" smooth="yes"/>
      <point x="665.0" y="228.0"/>
      <point x="647.0" y="210.0"/>
      <point x="625.0" y="210.0" type="curve" smooth="yes"/>
      <point x="275.0" y="210.0" type="line" smooth="yes"/>
      <point x="253.0" y="210.0"/>
      <point x="235.0" y="228.0"/>
    </contour>
    <contour>
      <point x="235.0" y="350.0" type="curve" smooth="yes"/>
      <point x="235.0" y="372.0"/>
      <point x="253.0" y="390.0"/>
      <point x="275.0" y="390.0" type="curve" smooth="yes"/>
      <point x="325.0" y="390.0" type="line" smooth="yes"/>
      <point x="347.0" y="390.0"/>
      <point x="365.0" y="372.0"/>
      <point x="365.0" y="350.0" type="curve" smooth="yes"/>
      <point x="365.0" y="328.0"/>
      <point x="347.0" y="310.0"/>
      <point x="325.0" y="310.0" type="curve" smooth="yes"/>
      <point x="275.0" y="310.0" type="line" smooth="yes"/>
      <point x="253.0" y="310.0"/>
      <point x="235.0" y="328.0"/>
    </contour>
    <contour>
      <point x="235.0" y="450.0" type="curve" smooth="yes"/>
      <point x="235.0" y="472.0"/>
      <point x="253.0" y="490.0"/>
      <point x="275.0" y="490.0" type="curve" smooth="yes"/>
      <point x="725.0" y="490.0" type="line" smooth="yes"/>
      <point x="747.0" y="490.0"/>
      <point x="765.0" y="472.0"/>
      <point x="765.0" y="450.0" type="curve" smooth="yes"/>
      <point x="765.0" y="428.0"/>
      <point x="747.0" y="410.0"/>
      <point x="725.0" y="410.0" type="curve" smooth="yes"/>
      <point x="275.0" y="410.0" type="line" smooth="yes"/>
      <point x="253.0" y="410.0"/>
      <point x="235.0" y="428.0"/>
    </contour>
  </outline>
</glyph>
<glyph name="ldot.sc" format="2">
  <advance width="600"/>
  <outline>
    <contour>
      <point x="335.0" y="350.0" type="curve" smooth="yes"/>
      <point x="335.0" y="372.0"/>
      <point x="353.0" y="390.0"/>
      <point x="375.0" y="390.0" type="curve" smooth="yes"/>
      <point x="425.0" y="390.0" type="line" smooth="yes"/>
      <point x="447.0" y="390.0"/>
      <point x="465.0" y="372.0"/>
      <point x="465.0" y="350.0" type="curve" smooth="yes"/>
      <point x="465.0" y="328.0"/>
      <point x="447.0" y="310.0"/>
      <point x="425.0" y="310.0" type="curve" smooth="yes"/>
      <point x="375.0" y="310.0" type="line" smooth="yes"/>
      <point x="353.0" y="310.0"/>
      <point x="335.0" y="328.0"/>
    </contour>
    <component base="l.sc"/>
  </outline>
</glyph>
